<svg width="56" height="56" viewBox="0 0 56 56" fill="none" xmlns="http://www.w3.org/2000/svg">
<g filter="url(#filter0_d_525_5494)">
<g clip-path="url(#clip0_525_5494)">
<rect x="4" y="2" width="48" height="48" rx="24" fill="white"/>
<path fill-rule="evenodd" clip-rule="evenodd" d="M28 50C14.7452 50 4 39.2548 4 26C4 12.7452 14.7452 2 28 2C41.2548 2 52 12.7452 52 26C52 39.2548 41.2548 50 28 50ZM18.9504 25.5982C20.4961 24.7058 22.5755 24.087 25.1885 23.7419C26.9705 23.4819 28.403 23.1743 29.486 22.8191C30.569 22.4639 31.6418 21.9796 32.7045 21.366C35.2001 19.9252 36.7707 17.8861 37.4162 15.2486L34.2988 9.84911C33.9422 11.2393 33.4007 12.4766 32.6742 13.5609C31.9477 14.6452 31.1578 15.4336 30.3045 15.9263C28.7266 16.8373 26.6518 17.4639 24.0799 17.806C22.5844 18.0045 21.2455 18.2789 20.063 18.6291C18.8806 18.9794 17.7017 19.4938 16.5263 20.1724C14.0628 21.5947 12.4923 23.6338 11.8145 26.2898L14.932 31.6893C15.3156 30.3459 15.8598 29.1227 16.5647 28.0196C17.2697 26.9166 18.0649 26.1095 18.9504 25.5982ZM25.1043 36.0597C26.65 35.1673 28.7293 34.5486 31.3424 34.2035C33.1243 33.9434 34.5568 33.6358 35.6398 33.2806C36.7228 32.9255 37.7957 32.4411 38.8583 31.8276C41.354 30.3867 42.9245 28.3476 43.5701 25.7102L40.4527 20.3107C40.096 21.7009 39.5545 22.9381 38.828 24.0224C38.1016 25.1067 37.3117 25.8952 36.4583 26.3879C34.8804 27.2989 32.8056 27.9254 30.2338 28.2675C28.7383 28.466 27.3993 28.7404 26.2169 29.0907C25.0344 29.4409 23.8555 29.9554 22.6801 30.634C20.2167 32.0562 18.6461 34.0953 17.9684 36.7514L21.0858 42.1509C21.4694 40.8074 22.0137 39.5842 22.7186 38.4812C23.4235 37.3781 24.2187 36.571 25.1043 36.0597Z" fill="#1165EF"/>
</g>
</g>
<defs>
<filter id="filter0_d_525_5494" x="0" y="0" width="56" height="56" filterUnits="userSpaceOnUse" color-interpolation-filters="sRGB">
<feFlood flood-opacity="0" result="BackgroundImageFix"/>
<feColorMatrix in="SourceAlpha" type="matrix" values="0 0 0 0 0 0 0 0 0 0 0 0 0 0 0 0 0 0 127 0" result="hardAlpha"/>
<feOffset dy="2"/>
<feGaussianBlur stdDeviation="2"/>
<feComposite in2="hardAlpha" operator="out"/>
<feColorMatrix type="matrix" values="0 0 0 0 0.0509804 0 0 0 0 0.0509804 0 0 0 0 0.0705882 0 0 0 0.12 0"/>
<feBlend mode="normal" in2="BackgroundImageFix" result="effect1_dropShadow_525_5494"/>
<feBlend mode="normal" in="SourceGraphic" in2="effect1_dropShadow_525_5494" result="shape"/>
</filter>
<clipPath id="clip0_525_5494">
<rect x="4" y="2" width="48" height="48" rx="24" fill="white"/>
</clipPath>
</defs>
</svg>
