<svg width="57" height="56" viewBox="0 0 57 56" fill="none" xmlns="http://www.w3.org/2000/svg">
<g filter="url(#filter0_d_525_5500)">
<rect x="4.33301" y="2" width="48" height="48" rx="24" fill="#5BBE85"/>
<path d="M17.1621 32V19.0625H22.4268C23.3818 19.0625 24.1787 19.2119 24.8174 19.5107C25.4561 19.8037 25.9365 20.208 26.2588 20.7236C26.5811 21.2334 26.7422 21.8105 26.7422 22.4551C26.7422 22.9473 26.6543 23.3838 26.4785 23.7646C26.3027 24.1396 26.0537 24.4531 25.7314 24.7051C25.415 24.9512 25.04 25.1211 24.6064 25.2148V25.2324C25.0752 25.2559 25.5176 25.3994 25.9336 25.6631C26.3496 25.9268 26.6895 26.293 26.9531 26.7617C27.2168 27.2305 27.3486 27.7871 27.3486 28.4316C27.3486 29.1113 27.1787 29.7207 26.8389 30.2598C26.499 30.7988 25.998 31.2236 25.3359 31.5342C24.6738 31.8447 23.8564 32 22.8838 32H17.1621ZM19.9834 29.6709H22.3652C23.1094 29.6709 23.6514 29.5303 23.9912 29.249C24.3369 28.9619 24.5098 28.584 24.5098 28.1152C24.5098 27.7637 24.4277 27.459 24.2637 27.2012C24.0996 26.9375 23.8623 26.7324 23.5518 26.5859C23.2412 26.4336 22.8662 26.3574 22.4268 26.3574H19.9834V29.6709ZM19.9834 24.3711H22.1631C22.5381 24.3711 22.8662 24.3066 23.1475 24.1777C23.4346 24.0488 23.6572 23.8672 23.8154 23.6328C23.9795 23.3926 24.0615 23.1113 24.0615 22.7891C24.0615 22.3555 23.9062 22.001 23.5957 21.7256C23.2852 21.4443 22.8223 21.3037 22.207 21.3037H19.9834V24.3711ZM27.8584 32L32.3408 19.0625H35.9531L40.4355 32H37.4033L34.1338 21.8398H34.1162L30.7764 32H27.8584ZM30.6709 29.0557V26.8408H37.5967V29.0557H30.6709Z" fill="white"/>
</g>
<defs>
<filter id="filter0_d_525_5500" x="0.333008" y="0" width="56" height="56" filterUnits="userSpaceOnUse" color-interpolation-filters="sRGB">
<feFlood flood-opacity="0" result="BackgroundImageFix"/>
<feColorMatrix in="SourceAlpha" type="matrix" values="0 0 0 0 0 0 0 0 0 0 0 0 0 0 0 0 0 0 127 0" result="hardAlpha"/>
<feOffset dy="2"/>
<feGaussianBlur stdDeviation="2"/>
<feComposite in2="hardAlpha" operator="out"/>
<feColorMatrix type="matrix" values="0 0 0 0 0.0509804 0 0 0 0 0.0509804 0 0 0 0 0.0705882 0 0 0 0.12 0"/>
<feBlend mode="normal" in2="BackgroundImageFix" result="effect1_dropShadow_525_5500"/>
<feBlend mode="normal" in="SourceGraphic" in2="effect1_dropShadow_525_5500" result="shape"/>
</filter>
</defs>
</svg>
