<svg width="57" height="56" viewBox="0 0 57 56" fill="none" xmlns="http://www.w3.org/2000/svg">
<g filter="url(#filter0_d_525_5519)">
<g clip-path="url(#clip0_525_5519)">
<rect x="4.33301" y="2" width="48" height="48" rx="24" fill="#E8EBE6"/>
<circle cx="28" cy="26" r="24.5" fill="#3290E8"/>
<path fill-rule="evenodd" clip-rule="evenodd" d="M38.5 12H17.5C15.592 11.997 14.0034 13.5955 14 15.5V36.5C14 38.4328 15.5674 40 17.5 40H38.5C40.408 40.003 41.9966 38.4045 42 36.5V15.5C42 13.5672 40.4333 12 38.5 12ZM31.7326 17.1333C31.7326 16.6184 32.1512 16.2 32.6667 16.2C33.1822 16.2 33.6 16.6184 33.6 17.1333V29.6034C33.6 30.1183 33.1814 30.5368 32.6667 30.5368C32.1725 30.5372 31.7346 30.0992 31.7333 29.6034L31.7326 17.1333ZM27.0659 16.6612C27.0659 16.1456 27.4845 15.7279 28 15.7279C28.5155 15.7279 28.9341 16.1456 28.9341 16.6612V30.1946C28.9341 30.7102 28.5155 31.1279 28 31.1279C27.5059 31.1283 27.0679 30.6903 27.0667 30.1946L27.0659 16.6612ZM22.4 17.1333C22.4 16.6184 22.8186 16.2 23.3333 16.2C23.8488 16.2 24.2667 16.6184 24.2667 17.1333V29.6034C24.2667 30.1183 23.8488 30.5368 23.3333 30.5368C22.8392 30.5372 22.4012 30.0992 22.4 29.6034V17.1333ZM17.7333 19C17.7333 18.4843 18.1512 18.0667 18.6667 18.0667C19.1822 18.0667 19.6 18.4843 19.6 19V27.3946C19.6 27.9102 19.1814 28.3279 18.6667 28.3279C18.1578 28.3287 17.7342 27.9025 17.7333 27.3946V19ZM37.9411 33.2364C37.7977 33.3609 34.3395 36.2612 28 36.2612C21.6605 36.2612 18.2047 33.3601 18.0589 33.2357C17.6733 32.9053 17.6277 32.3058 17.9581 31.9204C18.2803 31.5454 18.8951 31.4974 19.2713 31.8178C19.3256 31.8637 22.4132 34.3946 27.9992 34.3946C33.655 34.3946 36.6954 31.845 36.7248 31.8201C37.1005 31.4973 37.7176 31.5444 38.0403 31.9204C38.373 32.305 38.328 32.9062 37.9411 33.2364ZM38.2667 27.3953C38.2667 27.9102 37.8481 28.3287 37.3333 28.3287C36.8245 28.3295 36.4008 27.9032 36.4 27.3953V19C36.4 18.4843 36.8178 18.0667 37.3326 18.0667C37.8481 18.0667 38.2667 18.4843 38.2667 19V27.3953Z" fill="white"/>
</g>
</g>
<defs>
<filter id="filter0_d_525_5519" x="0.333008" y="0" width="56" height="56" filterUnits="userSpaceOnUse" color-interpolation-filters="sRGB">
<feFlood flood-opacity="0" result="BackgroundImageFix"/>
<feColorMatrix in="SourceAlpha" type="matrix" values="0 0 0 0 0 0 0 0 0 0 0 0 0 0 0 0 0 0 127 0" result="hardAlpha"/>
<feOffset dy="2"/>
<feGaussianBlur stdDeviation="2"/>
<feComposite in2="hardAlpha" operator="out"/>
<feColorMatrix type="matrix" values="0 0 0 0 0.0509804 0 0 0 0 0.0509804 0 0 0 0 0.0705882 0 0 0 0.12 0"/>
<feBlend mode="normal" in2="BackgroundImageFix" result="effect1_dropShadow_525_5519"/>
<feBlend mode="normal" in="SourceGraphic" in2="effect1_dropShadow_525_5519" result="shape"/>
</filter>
<clipPath id="clip0_525_5519">
<rect x="4.33301" y="2" width="48" height="48" rx="24" fill="white"/>
</clipPath>
</defs>
</svg>
