<svg width="56" height="56" viewBox="0 0 56 56" fill="none" xmlns="http://www.w3.org/2000/svg">
<g filter="url(#filter0_d_525_5452)">
<rect x="4" y="2" width="48" height="48" rx="24" fill="#FFE01B"/>
<path d="M33.922 25.6208C34.1169 25.5973 34.3038 25.5968 34.4752 25.6208C34.5745 25.3927 34.5916 25.0001 34.5024 24.5728C34.3695 23.9371 34.1901 23.5525 33.819 23.6123C33.4478 23.6721 33.434 24.1326 33.5669 24.7683C33.6417 25.1256 33.7741 25.4317 33.922 25.6208Z" fill="black"/>
<path d="M30.7355 26.1247C31.0014 26.2411 31.1643 26.3186 31.2284 26.2513C31.2695 26.2091 31.2572 26.129 31.1937 26.0253C31.0628 25.8111 30.7926 25.5942 30.507 25.4719C29.9217 25.2198 29.2239 25.3037 28.6856 25.6909C28.5078 25.8213 28.3396 26.0018 28.3636 26.1113C28.3716 26.1466 28.3978 26.1733 28.4603 26.1824C28.6066 26.1989 29.1187 25.9404 29.7087 25.9041C30.1252 25.8784 30.4701 26.0082 30.7355 26.1247Z" fill="black"/>
<path d="M30.2012 26.4295C29.8552 26.484 29.6646 26.5983 29.5418 26.7046C29.4371 26.796 29.3725 26.8969 29.3731 26.968L29.3997 27.031L29.4569 27.0529C29.5348 27.0529 29.71 26.9829 29.71 26.9829C30.1916 26.8104 30.5093 26.8312 30.8238 26.867C30.9979 26.8868 31.0801 26.8975 31.1181 26.8377C31.1293 26.8206 31.1432 26.7837 31.1084 26.7271C31.0273 26.5957 30.6781 26.3735 30.2018 26.4301L30.2012 26.4295Z" fill="black"/>
<path d="M32.8464 27.549C33.0814 27.6644 33.3398 27.619 33.4242 27.4475C33.5085 27.2761 33.3863 27.0437 33.1513 26.9283C32.9164 26.8129 32.6579 26.8583 32.5736 27.0298C32.4892 27.2013 32.6115 27.4336 32.8464 27.549Z" fill="black"/>
<path d="M34.3565 26.2289C34.1659 26.2257 34.0073 26.4351 34.003 26.6974C33.9987 26.9591 34.1499 27.1739 34.3405 27.1771C34.5311 27.1803 34.6897 26.9709 34.694 26.7091C34.6982 26.4474 34.5471 26.2327 34.3565 26.2289Z" fill="black"/>
<path d="M21.5383 30.9495C21.4908 30.8902 21.4129 30.9084 21.3376 30.9255C21.2847 30.9378 21.2249 30.9516 21.1598 30.9506C21.0193 30.9479 20.9002 30.8881 20.8335 30.7855C20.7465 30.652 20.7518 30.4527 20.8474 30.2246L20.8922 30.1226C21.0455 29.7791 21.3013 29.2038 21.014 28.6563C20.7977 28.2439 20.4442 27.987 20.0197 27.933C19.6123 27.8812 19.1926 28.0324 18.9251 28.3278C18.5027 28.7936 18.4371 29.4276 18.5187 29.652C18.5486 29.7343 18.5956 29.7567 18.6293 29.7615C18.7014 29.7711 18.8071 29.7188 18.8738 29.5398L18.8931 29.4816C18.923 29.387 18.978 29.2108 19.0682 29.0692C19.1771 28.8988 19.3469 28.7813 19.5466 28.7386C19.7495 28.6953 19.9573 28.7337 20.1308 28.8475C20.4266 29.0414 20.5404 29.4036 20.4143 29.7498C20.3492 29.9287 20.2429 30.2706 20.2664 30.5516C20.3139 31.1204 20.6637 31.3491 20.9777 31.3731C21.2831 31.3849 21.4967 31.2129 21.5506 31.0873C21.5827 31.0131 21.5554 30.9682 21.5383 30.9484V30.9495Z" fill="black"/>
<path d="M39.1721 29.9094C39.1603 29.8682 39.0845 29.591 38.9804 29.2571L38.7684 28.6882C39.186 28.0627 39.1934 27.5034 39.1379 27.1867C39.0786 26.794 38.9153 26.4591 38.5858 26.1135C38.2563 25.7673 37.583 25.4132 36.6363 25.1477L36.1397 25.0099C36.137 24.9896 36.1135 23.8384 36.0922 23.3443C36.0767 22.987 36.0457 22.4298 35.8727 21.8801C35.6666 21.1366 35.3078 20.4865 34.8592 20.0704C36.0964 18.7878 36.8685 17.3744 36.8664 16.1623C36.8627 13.8312 34.0011 13.1255 30.4743 14.5865L29.7273 14.9038C29.7241 14.9006 28.3763 13.578 28.356 13.5603C24.3352 10.0519 11.763 24.0313 15.7827 27.4265L16.6611 28.1711C16.4331 28.7614 16.3439 29.4382 16.417 30.1658C16.511 31.1 16.9927 31.9958 17.7738 32.6881C18.515 33.3452 19.49 33.7613 20.4357 33.7602C21.9997 37.3665 25.5735 39.5785 29.7641 39.7029C34.259 39.8365 38.0326 37.7265 39.6137 33.936C39.7173 33.67 40.1562 32.4713 40.1562 31.4131C40.1562 30.3495 39.5555 29.9088 39.1726 29.9088L39.1721 29.9094ZM20.7812 32.7474C20.6445 32.7709 20.5051 32.78 20.3647 32.7768C19.0068 32.7405 17.5405 31.5178 17.3947 30.0675C17.2335 28.4649 18.052 27.231 19.5018 26.9388C19.6748 26.9041 19.8846 26.8838 20.1105 26.8955C20.9227 26.9399 22.1193 27.5638 22.3927 29.3335C22.6346 30.9008 22.2501 32.4969 20.7812 32.7474ZM19.2652 25.98C18.3628 26.1557 17.5677 26.6669 17.0813 27.3736C16.7908 27.1311 16.2488 26.6616 16.1533 26.4789C15.3769 25.004 17.0007 22.1366 18.1348 20.5175C20.9381 16.5154 25.3284 13.4866 27.3612 14.0358C27.6918 14.1292 28.7859 15.3985 28.7859 15.3985C28.7859 15.3985 26.7541 16.5261 24.8703 18.0982C22.3318 20.0538 20.4138 22.8956 19.2652 25.98ZM33.5158 32.1481C33.5451 32.1358 33.5654 32.1016 33.5622 32.0685C33.5579 32.0274 33.5211 31.9974 33.48 32.0017C33.48 32.0017 31.3532 32.3169 29.3439 31.5808C29.5628 30.8693 30.1448 31.1262 31.0243 31.1973C32.6096 31.2918 34.0305 31.06 35.0803 30.7587C35.9902 30.4975 37.1852 29.9825 38.1138 29.2496C38.4267 29.9377 38.5372 30.6946 38.5372 30.6946C38.5372 30.6946 38.7796 30.6513 38.982 30.7758C39.1732 30.8938 39.3136 31.1385 39.218 31.772C39.0226 32.9552 38.5201 33.9151 37.6754 34.7987C37.1612 35.3526 36.537 35.8339 35.8225 36.1838C35.4434 36.383 35.0392 36.5556 34.6125 36.695C31.4279 37.7356 28.1675 36.5914 27.1167 34.1347C27.0329 33.9499 26.9618 33.7565 26.9058 33.5546C26.4578 31.9355 26.838 29.9932 28.0266 28.7705C28.0997 28.6925 28.1745 28.6006 28.1745 28.4852C28.1745 28.3886 28.1131 28.2871 28.0602 28.2149C27.6442 27.6119 26.2041 26.5836 26.4935 24.5938C26.7013 23.1643 27.9507 22.1579 29.1159 22.2177L29.4111 22.2348C29.9157 22.2648 30.3563 22.3294 30.7722 22.347C31.468 22.3769 32.0933 22.276 32.8339 21.6585C33.0838 21.4501 33.284 21.2696 33.6231 21.2119C33.6589 21.206 33.7475 21.174 33.9242 21.1825C34.1053 21.1921 34.2772 21.2418 34.4321 21.3449C35.0258 21.7402 35.1102 22.698 35.1412 23.3983C35.1588 23.7984 35.2068 24.7658 35.2234 25.043C35.2613 25.6781 35.4279 25.7673 35.7654 25.879C35.9555 25.9415 36.1317 25.988 36.3912 26.0611C37.1772 26.2818 37.6433 26.5061 37.9376 26.7935C38.1127 26.9735 38.1944 27.1642 38.2195 27.3469C38.3124 28.0237 37.6946 28.8592 36.0591 29.6188C34.2713 30.4489 32.1029 30.6588 30.6046 30.4921L30.0797 30.4328C28.8809 30.2715 28.1974 31.8212 28.9167 32.8826C29.3802 33.5669 30.643 34.0118 31.9064 34.0124C34.8032 34.0129 37.0298 32.7752 37.858 31.7063L37.9242 31.6118C37.9648 31.5503 37.9311 31.5167 37.8804 31.5514C37.2039 32.0145 34.1982 33.8537 30.9832 33.3003C30.9832 33.3003 30.5923 33.2362 30.2361 33.0973C29.9526 32.9873 29.3599 32.7143 29.2878 32.1054C31.8824 32.9082 33.5158 32.1492 33.5158 32.1492V32.1481ZM29.4058 31.6625L29.4063 31.6631L29.4069 31.6641L29.4058 31.6625ZM24.4426 20.5004C25.439 19.3482 26.666 18.3466 27.7649 17.7841C27.8028 17.7649 27.8434 17.806 27.8226 17.8434C27.7356 18.0015 27.5674 18.3402 27.514 18.5966C27.5054 18.6366 27.5492 18.6665 27.5828 18.6436C28.2663 18.1772 29.456 17.6778 30.4994 17.6137C30.5442 17.611 30.5656 17.6682 30.5303 17.6959C30.3718 17.8177 30.1982 17.986 30.0717 18.1564C30.0503 18.1852 30.0706 18.2269 30.1064 18.2274C30.839 18.2328 31.8717 18.4892 32.5445 18.8669C32.5899 18.8925 32.5578 18.9806 32.5066 18.9689C31.4883 18.7355 29.8212 18.5581 28.0896 18.9806C26.5437 19.3578 25.3637 19.94 24.5029 20.5666C24.4597 20.5981 24.4073 20.5415 24.4426 20.5004Z" fill="black"/>
</g>
<defs>
<filter id="filter0_d_525_5452" x="0" y="0" width="56" height="56" filterUnits="userSpaceOnUse" color-interpolation-filters="sRGB">
<feFlood flood-opacity="0" result="BackgroundImageFix"/>
<feColorMatrix in="SourceAlpha" type="matrix" values="0 0 0 0 0 0 0 0 0 0 0 0 0 0 0 0 0 0 127 0" result="hardAlpha"/>
<feOffset dy="2"/>
<feGaussianBlur stdDeviation="2"/>
<feComposite in2="hardAlpha" operator="out"/>
<feColorMatrix type="matrix" values="0 0 0 0 0.0509804 0 0 0 0 0.0509804 0 0 0 0 0.0705882 0 0 0 0.12 0"/>
<feBlend mode="normal" in2="BackgroundImageFix" result="effect1_dropShadow_525_5452"/>
<feBlend mode="normal" in="SourceGraphic" in2="effect1_dropShadow_525_5452" result="shape"/>
</filter>
</defs>
</svg>
