<svg width="57" height="56" viewBox="0 0 57 56" fill="none" xmlns="http://www.w3.org/2000/svg">
<g filter="url(#filter0_d_525_5480)">
<rect x="4.66699" y="2" width="48" height="48" rx="24" fill="#FF4F00"/>
<path d="M13.038 27.8359L13.0317 27.8157L17.045 24.1416V22.3713H10.6063V24.1416H14.4522L14.4585 24.1586L10.4844 27.8359V29.6062H17.1097V27.8359H13.038Z" fill="white"/>
<path d="M21.0611 22.2026C20.3184 22.2026 19.7131 22.3146 19.2452 22.5387C18.8094 22.7339 18.4423 23.0556 18.1915 23.462C17.9516 23.871 17.801 24.3262 17.7495 24.7976L19.7031 25.0722C19.7738 24.6559 19.9152 24.3609 20.1272 24.187C20.3682 24.0052 20.6652 23.9133 20.9667 23.9273C21.3632 23.9273 21.6508 24.0333 21.8296 24.2453C22.0067 24.4574 22.0968 24.751 22.0968 25.1379V25.3308H20.2183C19.2622 25.3308 18.5753 25.5428 18.1576 25.9669C17.74 26.3909 17.5315 26.9506 17.5322 27.646C17.5322 28.3583 17.7407 28.8884 18.1576 29.236C18.5745 29.5838 19.0989 29.7565 19.7308 29.7544C20.5144 29.7544 21.1173 29.4848 21.5391 28.9456C21.7883 28.6142 21.9662 28.2349 22.0617 27.8315H22.1328L22.4021 29.6017H24.1724V25.1188C24.1724 24.1923 23.9282 23.4747 23.4399 22.9659C22.9515 22.4571 22.1586 22.2026 21.0611 22.2026ZM21.6802 27.7287C21.3992 27.9629 21.0314 28.0795 20.5735 28.0795C20.196 28.0795 19.9339 28.0135 19.7869 27.8813C19.7153 27.8188 19.6583 27.7413 19.62 27.6542C19.5817 27.5672 19.563 27.4728 19.5654 27.3778C19.5611 27.2882 19.5753 27.1986 19.6068 27.1146C19.6383 27.0306 19.6866 26.9539 19.7487 26.8891C19.8159 26.8261 19.8952 26.7774 19.9817 26.7459C20.0683 26.7143 20.1603 26.7007 20.2523 26.7057H22.0999V26.8276C22.1037 26.9999 22.0678 27.1708 21.995 27.327C21.9222 27.4833 21.8145 27.6207 21.6802 27.7287Z" fill="white"/>
<path d="M34.8766 22.3713H32.7852V29.6072H34.8766V22.3713Z" fill="white"/>
<path d="M47.2243 22.3713C46.6336 22.3713 46.1678 22.5798 45.8272 22.9968C45.5827 23.2964 45.3968 23.7392 45.2696 24.325H45.2081L44.9347 22.3713H43.1484V29.6062H45.24V25.896C45.24 25.4282 45.3495 25.0695 45.5686 24.82C45.7876 24.5706 46.1919 24.4459 46.7813 24.4459H47.5752V22.3713H47.2243Z" fill="white"/>
<path d="M41.076 22.6077C40.5877 22.3173 39.9718 22.1724 39.2283 22.1731C38.0581 22.1731 37.1422 22.5063 36.4808 23.1727C35.8192 23.8391 35.4886 24.7578 35.4886 25.9288C35.4717 26.6368 35.6262 27.3383 35.939 27.9737C36.2254 28.5398 36.6713 29.0097 37.2217 29.3252C37.7757 29.6454 38.4347 29.8058 39.1986 29.8065C39.8595 29.8065 40.4114 29.7047 40.8545 29.5012C41.2711 29.3184 41.6338 29.0319 41.9081 28.6691C42.1694 28.3129 42.3634 27.9119 42.4806 27.486L40.6785 26.9815C40.6027 27.2584 40.4566 27.5111 40.2545 27.715C40.0509 27.9185 39.71 28.0203 39.2315 28.0203C38.6627 28.0203 38.2387 27.8574 37.9595 27.5316C37.7571 27.2963 37.6299 26.9603 37.5736 26.5246H42.5082C42.5283 26.3211 42.5389 26.1504 42.5389 26.0126V25.5621C42.5508 24.9568 42.4258 24.3567 42.1732 23.8066C41.9368 23.3055 41.5543 22.8876 41.076 22.6077ZM39.168 23.8978C40.016 23.8978 40.4969 24.3151 40.6106 25.1497H37.6107C37.6584 24.8712 37.7738 24.6087 37.9468 24.3854C38.2217 24.0596 38.6287 23.8971 39.168 23.8978Z" fill="white"/>
<path d="M33.8534 19.4553C33.696 19.4499 33.5392 19.4762 33.3922 19.5327C33.2453 19.5892 33.1112 19.6746 32.9979 19.7839C32.8863 19.8942 32.7987 20.0266 32.7408 20.1726C32.683 20.3186 32.6561 20.475 32.6619 20.6319C32.6562 20.7898 32.6832 20.9472 32.7411 21.0943C32.799 21.2413 32.8866 21.3749 32.9984 21.4866C33.1102 21.5983 33.2438 21.6857 33.3909 21.7435C33.538 21.8013 33.6955 21.8281 33.8534 21.8223C34.0103 21.8283 34.1668 21.8014 34.3128 21.7436C34.4587 21.6857 34.5911 21.5981 34.7014 21.4863C34.8108 21.3733 34.8962 21.2394 34.9525 21.0926C35.0088 20.9457 35.0348 20.789 35.0289 20.6319C35.0361 20.4757 35.0108 20.3197 34.9543 20.1739C34.8978 20.028 34.8116 19.8956 34.7011 19.7849C34.5905 19.6743 34.4582 19.588 34.3124 19.5314C34.1666 19.4748 34.0106 19.4492 33.8544 19.4563L33.8534 19.4553Z" fill="white"/>
<path d="M29.534 22.1731C28.8217 22.1731 28.2493 22.3968 27.8168 22.8441C27.4966 23.1755 27.2617 23.6702 27.1119 24.3282H27.0451L26.7716 22.3745H24.9854V31.686H27.0768V27.8507H27.1532C27.217 28.1064 27.3065 28.355 27.4203 28.5927C27.5973 28.9799 27.8874 29.3044 28.2525 29.5234C28.631 29.73 29.0574 29.8328 29.4884 29.8213C30.3641 29.8213 31.0308 29.4804 31.4888 28.7984C31.9467 28.1164 32.1757 27.1649 32.1757 25.9437C32.1757 24.7642 31.9542 23.8409 31.511 23.1738C31.0679 22.5067 30.4089 22.1731 29.534 22.1731ZM29.7461 27.4161C29.5022 27.7694 29.1206 27.9461 28.6012 27.9461C28.3871 27.956 28.1736 27.9147 27.9786 27.8257C27.7835 27.7366 27.6125 27.6024 27.4797 27.4341C27.209 27.0942 27.074 26.6288 27.0748 26.038V25.9002C27.0748 25.3002 27.2097 24.8409 27.4797 24.5222C27.7496 24.2034 28.1235 24.0458 28.6012 24.0494C29.1298 24.0494 29.5139 24.2172 29.7535 24.5529C29.993 24.8886 30.1128 25.3568 30.1128 25.9574C30.1143 26.5786 29.9927 27.0648 29.7481 27.4161H29.7461Z" fill="white"/>
</g>
<defs>
<filter id="filter0_d_525_5480" x="0.666992" y="0" width="56" height="56" filterUnits="userSpaceOnUse" color-interpolation-filters="sRGB">
<feFlood flood-opacity="0" result="BackgroundImageFix"/>
<feColorMatrix in="SourceAlpha" type="matrix" values="0 0 0 0 0 0 0 0 0 0 0 0 0 0 0 0 0 0 127 0" result="hardAlpha"/>
<feOffset dy="2"/>
<feGaussianBlur stdDeviation="2"/>
<feComposite in2="hardAlpha" operator="out"/>
<feColorMatrix type="matrix" values="0 0 0 0 0.0509804 0 0 0 0 0.0509804 0 0 0 0 0.0705882 0 0 0 0.12 0"/>
<feBlend mode="normal" in2="BackgroundImageFix" result="effect1_dropShadow_525_5480"/>
<feBlend mode="normal" in="SourceGraphic" in2="effect1_dropShadow_525_5480" result="shape"/>
</filter>
</defs>
</svg>
