<svg width="1246" height="881" viewBox="0 0 1246 881" fill="none" xmlns="http://www.w3.org/2000/svg">
<path d="M672.402 -433.942L672.388 -433.942C300.135 -433.942 2.49219 -141.443 2.49219 222.667C2.49219 581.165 300.147 879.276 672.223 878.95H672.235C786.021 879.554 898.108 851.342 998.051 796.944C1097.39 742.875 1181.52 664.685 1242.69 569.585L969.01 406.341C937.616 456.083 894.123 497.068 842.583 525.458C790.472 554.161 731.875 569.029 672.384 568.643C672.381 568.643 672.378 568.643 672.375 568.643L672.388 566.643C480.429 566.643 323.113 406.637 323.113 222.667C323.113 38.6965 480.429 -121.31 672.388 -121.31L672.402 -433.942ZM672.402 -433.942C784.317 -434.727 894.669 -407.652 993.513 -355.159C1091.73 -302.998 1175.52 -227.368 1237.43 -135.012L672.402 -433.942Z" fill="white" stroke="#F5F5F5" stroke-width="4"/>
</svg>
