<svg width="32" height="32" viewBox="0 0 32 32" fill="none" xmlns="http://www.w3.org/2000/svg">
<path fill-rule="evenodd" clip-rule="evenodd" d="M13.2971 0.687536C14.9824 -0.229179 17.0175 -0.229179 18.7028 0.687536L28.473 6.00205C30.2935 6.99226 31.4267 8.89867 31.4267 10.971V21.029C31.4267 23.1013 30.2935 25.0077 28.473 25.998L18.7028 31.3125C17.0175 32.2292 14.9824 32.2292 13.2971 31.3125L3.52687 25.998C1.70645 25.0077 0.573242 23.1013 0.573242 21.029L0.573242 10.971C0.573242 8.89867 1.70645 6.99226 3.52686 6.00205L13.2971 0.687536Z" fill="#26A17B"/>
<g clip-path="url(#clip0_709_4572)">
<path d="M16 28.8C23.0692 28.8 28.8 23.0692 28.8 16C28.8 8.93071 23.0692 3.19995 16 3.19995C8.93071 3.19995 3.19995 8.93071 3.19995 16C3.19995 23.0692 8.93071 28.8 16 28.8Z" fill="#26A17B"/>
<path fill-rule="evenodd" clip-rule="evenodd" d="M17.2976 17.2512V17.2496C17.2096 17.256 16.756 17.2832 15.744 17.2832C14.936 17.2832 14.3672 17.2592 14.1672 17.2496V17.252C11.0568 17.1152 8.7352 16.5736 8.7352 15.9256C8.7352 15.2784 11.0568 14.7368 14.1672 14.5976V16.7128C14.3704 16.7272 14.9528 16.7616 15.7576 16.7616C16.7232 16.7616 17.2072 16.7216 17.2976 16.7136V14.5992C20.4016 14.7376 22.7176 15.2792 22.7176 15.9256C22.7176 16.5736 20.4016 17.1136 17.2976 17.2512ZM17.2976 14.3792V12.4864H21.6288V9.59998H9.836V12.4864H14.1672V14.3784C10.6472 14.54 8 15.2376 8 16.0728C8 16.908 10.6472 17.6048 14.1672 17.7672V23.8328H17.2976V17.7656C20.812 17.604 23.4528 16.9072 23.4528 16.0728C23.4528 15.2384 20.812 14.5416 17.2976 14.3792Z" fill="white"/>
</g>
<defs>
<clipPath id="clip0_709_4572">
<rect width="25.6" height="25.6" fill="white" transform="translate(3.19995 3.19995)"/>
</clipPath>
</defs>
</svg>
