<svg width="73" height="22" viewBox="0 0 73 22" fill="none" xmlns="http://www.w3.org/2000/svg">
<path d="M10.7822 10.9929C10.7822 8.2686 13.0252 6.06543 15.8297 6.06543C18.6538 6.06543 20.8973 8.26983 20.8973 10.9929C20.8973 13.6969 18.6538 15.9405 15.8297 15.9405C13.0252 15.9405 10.7822 13.6945 10.7822 10.9929ZM18.4737 10.9929C18.4737 9.63104 17.2919 8.42903 15.8297 8.42903C14.3876 8.42903 13.2058 9.63104 13.2058 10.9929C13.2058 12.3749 14.3876 13.5769 15.8297 13.5769C17.2944 13.5769 18.4737 12.3749 18.4737 10.9929Z" fill="#0056D2"/>
<path d="M61.6816 11.0731C61.6816 8.08858 64.1052 6.06543 66.309 6.06543C67.8111 6.06543 68.6726 6.5259 69.2531 7.40766L69.484 6.24423H71.7367V15.7599H69.484L69.1931 14.7801C68.5324 15.5015 67.7107 15.9436 66.309 15.9436C64.1457 15.9405 61.6816 14.0374 61.6816 11.0731ZM69.3731 11.0529C69.3705 10.3546 69.0905 9.6859 68.5948 9.194C68.0991 8.70211 67.4283 8.42727 66.73 8.42995C66.0317 8.43263 65.363 8.71261 64.8711 9.20829C64.3792 9.70398 64.1044 10.3748 64.1071 11.0731C64.1071 12.3951 65.2889 13.5769 66.7315 13.5769C68.192 13.5769 69.3731 12.3951 69.3731 11.0529Z" fill="#0056D2"/>
<path d="M58.9131 7.34723V6.24503H56.4497V15.7601H58.9131V10.633C58.9131 9.09054 59.6749 8.28961 60.9951 8.28961C61.0826 8.28961 61.1659 8.29574 61.2473 8.3037L61.7041 6.00684C60.4201 6.01357 59.4893 6.45384 58.9131 7.34723Z" fill="#0056D2"/>
<path d="M34.1582 7.34774V6.24555L31.6948 6.25106L31.7156 15.7649L34.1791 15.7594L34.1656 10.6329C34.1619 9.09105 34.9218 8.28829 36.2432 8.28522C36.3275 8.28547 36.4117 8.29017 36.4955 8.29931L36.9499 6C35.664 6.01041 34.732 6.45251 34.1582 7.34774Z" fill="#0056D2"/>
<path d="M21.751 12.0744V6.24561H24.2138V11.7744C24.2138 12.996 24.8947 13.7173 26.0765 13.7173C27.3985 13.7173 28.1584 12.9157 28.1584 11.3733V6.24561H30.6224V15.76H28.1603V14.6578C27.5798 15.5592 26.638 16.0001 25.3362 16.0001C23.133 16.0007 21.751 14.3982 21.751 12.0744Z" fill="#0056D2"/>
<path d="M45.7383 11.0039C45.7438 8.33964 47.6506 6.05993 50.6749 6.06544C53.4794 6.07095 55.4578 8.3176 55.4511 10.9641C55.4516 11.2258 55.4311 11.487 55.3899 11.7454L48.1392 11.732C48.4172 12.874 49.3572 13.6969 50.7796 13.7C51.6406 13.7 52.5627 13.3828 53.1249 12.6627L54.8051 14.0098C53.9411 15.2302 52.417 15.9485 50.7955 15.9454C47.9329 15.9356 45.7334 13.7882 45.7383 11.0039ZM52.9712 10.0156C52.8328 9.05423 51.8328 8.31086 50.651 8.30903C49.509 8.30903 48.5869 8.98626 48.2244 10.007L52.9712 10.0156Z" fill="#0056D2"/>
<path d="M36.9648 13.686L39.1545 12.5397C39.5164 13.3241 40.2402 13.7864 41.2659 13.7864C42.2107 13.7864 42.5726 13.4851 42.5726 13.0626C42.5726 11.5318 37.3855 12.4595 37.3855 8.96C37.3855 7.02993 39.0743 6.00488 41.1648 6.00488C42.7532 6.00488 44.1604 6.70845 44.9246 8.01517L42.7544 9.16329C42.433 8.51973 41.8298 8.15784 41.0656 8.15784C40.3223 8.15784 39.9598 8.41931 39.9598 8.86141C39.9598 10.3494 45.1468 9.40455 45.1468 12.964C45.1468 14.8139 43.6393 15.9394 41.2065 15.9394C39.1356 15.9375 37.688 15.2542 36.9648 13.686Z" fill="#0056D2"/>
<path d="M1 10.9929C1 8.24908 3.24297 6.04529 6.04746 6.04529C6.89069 6.03938 7.72214 6.24337 8.46688 6.63889C9.21162 7.0344 9.84625 7.60901 10.3136 8.31092L8.21083 9.53069C7.96752 9.183 7.64367 8.89938 7.26695 8.70403C6.89022 8.50869 6.47181 8.40742 6.04746 8.40889C4.60541 8.40889 3.42361 9.6109 3.42361 10.9929C3.42361 12.375 4.60541 13.577 6.04746 13.577C6.49183 13.5799 6.92952 13.4688 7.31876 13.2544C7.70799 13.04 8.03578 12.7294 8.27084 12.3523L10.3528 13.5941C9.89114 14.3166 9.25413 14.9104 8.5011 15.3203C7.74808 15.7301 6.90356 15.9427 6.04623 15.9381C3.24297 15.9406 1 13.6945 1 10.9929Z" fill="#0056D2"/>
</svg>
