<svg width="111" height="38" viewBox="0 0 111 38" fill="none" xmlns="http://www.w3.org/2000/svg">
<g id="ITEA logo_white" clip-path="url(#clip0_245_2962)">
<g id="&#208;&#161;&#208;&#187;&#208;&#190;&#208;&#185;_x0020_1">
<g id="_2580086784320">
<path id="Vector" fill-rule="evenodd" clip-rule="evenodd" d="M8.81848 23.0094H4.62144C4.39405 23.0094 4.1986 23.1166 4.07646 23.3084C3.95431 23.5002 3.93972 23.7226 4.03583 23.9287L9.00544 34.5862C9.11706 34.8255 9.24234 35.0545 9.37972 35.2723C9.53556 35.5195 9.82509 35.6296 10.1057 35.5485C10.3864 35.4674 10.5725 35.2199 10.5725 34.9278V24.7635C10.5725 23.7974 9.78465 23.0095 8.81858 23.0095L8.81848 23.0094ZM20.7691 0.253926L3.57837 8.27003C0.48626 9.71194 -0.863883 13.4214 0.57803 16.5134L0.799423 16.9883C0.908088 17.2212 1.1281 17.3614 1.38503 17.3614H13.8717C14.8378 17.3614 15.6257 18.1495 15.6257 19.1154V37.3518C15.6257 37.5703 15.7243 37.7585 15.9039 37.8829C16.0834 38.0073 16.2942 38.0336 16.4987 37.9569C17.977 37.4029 20.407 36.139 21.7763 35.4783C22.005 35.368 22.1417 35.1504 22.1417 34.8964V24.7634C22.1417 23.7973 21.3538 23.0094 20.3878 23.0094H19.2499C18.2838 23.0094 17.4959 22.2215 17.4959 21.2555C17.4959 20.5422 17.4959 19.8288 17.4959 19.1154C17.4959 18.1493 18.2838 17.3614 19.2499 17.3614H20.3878C21.3538 17.3614 22.1417 16.5735 22.1417 15.6075V0.64861C22.1417 0.429711 22.0429 0.241462 21.8629 0.117102C21.6828 -0.00735015 21.4718 -0.0332008 21.2671 0.0441665C21.0999 0.107316 20.9337 0.177297 20.7691 0.254111V0.253926ZM12.9955 15.9322C11.4359 15.9322 10.1714 14.6678 10.1714 13.1082C10.1714 11.5485 11.4359 10.2842 12.9955 10.2842C14.5551 10.2842 15.8195 11.5485 15.8195 13.1082C15.8195 14.6678 14.5551 15.9322 12.9955 15.9322Z" fill="#1A3560"/>
<path id="Vector_2" fill-rule="evenodd" clip-rule="evenodd" d="M27.79 24.7633V31.6566C27.79 31.884 27.8972 32.0795 28.0891 32.2016C28.2808 32.3237 28.5032 32.3383 28.7093 32.2422L35.3216 29.1588C37.5233 28.1322 38.8418 25.9557 38.8982 23.6713C38.9026 23.4906 38.8408 23.3335 38.7146 23.2041C38.5884 23.0747 38.4328 23.0091 38.252 23.0091H29.544C28.5779 23.0091 27.79 23.797 27.79 24.7631V24.7633Z" fill="#40B3E7"/>
<path id="Vector_3" fill-rule="evenodd" clip-rule="evenodd" d="M29.5441 17.3612H35.6502C35.8776 17.3612 36.0731 17.254 36.1952 17.0623C36.3173 16.8704 36.3319 16.648 36.2358 16.4419L30.3058 3.7247C29.946 2.95315 29.4641 2.27531 28.8938 1.70355C28.7052 1.51447 28.4361 1.46064 28.1893 1.56266C27.9426 1.66477 27.79 1.89281 27.79 2.15981V15.6071C27.79 16.5732 28.5779 17.3611 29.544 17.3611L29.5441 17.3612Z" fill="#40B3E7"/>
<path id="Vector_4" d="M47.1788 12.9401V5.15968H48.8279V12.9401H47.1788ZM53.7861 12.9401H52.1371V6.53263H50.0249V5.15959H55.8983V6.53263H53.7861V12.9401ZM50.1792 22.6959H48.5302V16.2884H46.418V14.9154H52.2914V16.2884H50.1792V22.6959ZM57.4929 22.6959L56.9281 20.8434H54.0913L53.5283 22.6959H51.7503L54.4963 14.8828H56.5123L59.2692 22.6959H57.493H57.4929ZM56.534 19.4594C56.0128 17.7814 55.7186 16.8314 55.6531 16.6117C55.5878 16.3919 55.5406 16.2176 55.5132 16.0905C55.3953 16.5446 55.0592 17.6669 54.5071 19.4595H56.534V19.4594ZM59.4798 17.5852L59.4035 17.4671C59.4816 17.1438 59.6106 16.7388 59.7903 16.2503C59.9702 15.7617 60.1536 15.3168 60.3406 14.9154H61.5066C61.2723 15.8633 61.0925 16.7532 60.969 17.5851H59.4798V17.5852ZM62.6108 22.6959V14.9154H64.2599V21.3338H67.4164V22.6959H62.6108V22.6959ZM68.7676 22.6959V14.9154H70.4167V22.6959H68.7676ZM75.6691 22.6959L73.7948 16.5917H73.7476C73.8148 17.834 73.8493 18.6621 73.8493 19.0763V22.6959H72.3745V14.9154H74.6211L76.4609 20.8652H76.4936L78.4478 14.9154H80.6926V22.6959H79.1542V19.0127C79.1542 18.8401 79.1579 18.6385 79.1634 18.4116C79.1688 18.1845 79.1924 17.5816 79.2342 16.6027H79.1869L77.1801 22.6959H75.669L75.6691 22.6959ZM53.5119 24.6711V29.7073C53.5119 30.2812 53.383 30.7861 53.1269 31.2184C52.8689 31.6526 52.4985 31.983 52.0117 32.2137C51.525 32.4443 50.9511 32.5606 50.2863 32.5606C49.2875 32.5606 48.5102 32.3045 47.9562 31.7906C47.4023 31.2784 47.1262 30.5774 47.1262 29.6856V24.6712H48.7698V29.4349C48.7698 30.0361 48.8915 30.4756 49.1313 30.7554C49.3729 31.0368 49.7724 31.1767 50.33 31.1767C50.8694 31.1767 51.2598 31.0351 51.5033 30.7535C51.7466 30.472 51.8683 30.0289 51.8683 29.4259V24.6712H53.5119V24.6711ZM57.8362 27.8748L59.4598 24.6711H61.236L58.6553 29.424V32.4515H57.0171V29.4767L54.4364 24.6711H56.2235L57.8362 27.8748ZM68.5481 24.6711V29.7073C68.5481 30.2812 68.4191 30.7861 68.163 31.2184C67.905 31.6526 67.5346 31.983 67.0478 32.2137C66.5611 32.4443 65.9872 32.5606 65.3225 32.5606C64.3236 32.5606 63.5463 32.3045 62.9923 31.7906C62.4385 31.2784 62.1623 30.5774 62.1623 29.6856V24.6712H63.806V29.4349C63.806 30.0361 63.9276 30.4756 64.1674 30.7554C64.409 31.0368 64.8085 31.1767 65.3661 31.1767C65.9055 31.1767 66.2959 31.0351 66.5394 30.7535C66.7828 30.472 66.9044 30.0289 66.9044 29.4259V24.6712H68.5481V24.6711ZM75.0463 30.294C75.0463 30.9969 74.792 31.549 74.2871 31.9539C73.7822 32.359 73.0776 32.5605 72.1768 32.5605C71.3468 32.5605 70.6112 32.4043 69.9737 32.0919V30.559C70.4986 30.7933 70.9436 30.9586 71.3068 31.0548C71.6701 31.1511 72.0024 31.1983 72.3039 31.1983C72.6672 31.1983 72.945 31.1294 73.1375 30.9913C73.3318 30.8532 73.4281 30.6462 73.4281 30.3739C73.4281 30.2213 73.3863 30.085 73.301 29.967C73.2156 29.8471 73.0903 29.7327 72.925 29.6236C72.7597 29.5129 72.4236 29.3367 71.9171 29.097C71.4411 28.8719 71.0834 28.6575 70.8455 28.4523C70.6075 28.2471 70.4186 28.0073 70.277 27.7331C70.1336 27.4607 70.0627 27.1412 70.0627 26.776C70.0627 26.0877 70.2971 25.5464 70.7638 25.1524C71.2305 24.7583 71.8752 24.5622 72.6979 24.5622C73.103 24.5622 73.488 24.6094 73.8567 24.7057C74.2236 24.8019 74.6067 24.9364 75.0082 25.1108L74.476 26.393C74.0601 26.2223 73.7169 26.1042 73.4463 26.037C73.1739 25.9697 72.907 25.9352 72.6454 25.9352C72.333 25.9352 72.0933 26.0079 71.9262 26.1532C71.7591 26.2985 71.6755 26.4893 71.6755 26.7235C71.6755 26.8688 71.7101 26.9959 71.7773 27.1031C71.8445 27.2121 71.9516 27.3156 72.0988 27.4173C72.2458 27.519 72.5946 27.7006 73.1449 27.9621C73.8731 28.3108 74.3708 28.6595 74.6414 29.0082C74.9102 29.3588 75.0465 29.7855 75.0465 30.2941L75.0463 30.294ZM82.8267 32.4516H81.1831V29.0953H78.1029V32.4516H76.4538V24.6712H78.1029V27.7223H81.1831V24.6712H82.8267V32.4516ZM88.0864 32.4516L86.2121 26.3474H86.1648C86.2321 27.5898 86.2666 28.4179 86.2666 28.8321V32.4516H84.7918V24.6712H87.0384L88.8781 30.6209H88.9109L90.865 24.6712H93.1099V32.4516H91.5715V28.7685C91.5715 28.5959 91.5752 28.3943 91.5806 28.1673C91.5861 27.9403 91.6096 27.3373 91.6515 26.3584H91.6042L89.5974 32.4517H88.0863L88.0864 32.4516ZM99.8298 32.4516L99.2649 30.5991H96.4281L95.8651 32.4516H94.0871L96.8331 24.6385H98.8491L101.606 32.4516H99.8299H99.8298ZM98.8708 29.2152C98.3496 27.5371 98.0554 26.5872 97.99 26.3675C97.9246 26.1477 97.8774 25.9733 97.8501 25.8462C97.7321 26.3004 97.396 27.4226 96.8439 29.2153H98.8708V29.2152ZM107.18 30.294C107.18 30.9969 106.926 31.549 106.421 31.9539C105.916 32.359 105.211 32.5605 104.31 32.5605C103.48 32.5605 102.745 32.4043 102.107 32.0919V30.559C102.632 30.7933 103.077 30.9586 103.44 31.0548C103.804 31.1511 104.136 31.1983 104.437 31.1983C104.801 31.1983 105.078 31.1294 105.271 30.9913C105.465 30.8532 105.562 30.6462 105.562 30.3739C105.562 30.2213 105.52 30.085 105.434 29.967C105.349 29.8471 105.224 29.7327 105.058 29.6236C104.893 29.5129 104.557 29.3367 104.051 29.097C103.575 28.8719 103.217 28.6575 102.979 28.4523C102.741 28.2471 102.552 28.0073 102.411 27.7331C102.267 27.4607 102.196 27.1412 102.196 26.776C102.196 26.0877 102.431 25.5464 102.897 25.1524C103.364 24.7583 104.009 24.5622 104.831 24.5622C105.236 24.5622 105.621 24.6094 105.99 24.7057C106.357 24.8019 106.74 24.9364 107.142 25.1108L106.609 26.393C106.194 26.2223 105.85 26.1042 105.58 26.037C105.307 25.9697 105.04 25.9352 104.779 25.9352C104.466 25.9352 104.227 26.0079 104.06 26.1532C103.893 26.2985 103.809 26.4893 103.809 26.7235C103.809 26.8688 103.844 26.9959 103.911 27.1031C103.978 27.2121 104.085 27.3156 104.232 27.4173C104.379 27.519 104.728 27.7006 105.278 27.9621C106.007 28.3108 106.504 28.6595 106.775 29.0082C107.044 29.3588 107.18 29.7855 107.18 30.2941L107.18 30.294ZM108.587 32.4516V24.6712H110.236V32.4516H108.587Z" fill="#1A3560"/>
</g>
</g>
</g>
<defs>
<clipPath id="clip0_245_2962">
<rect width="110.236" height="38" fill="white"/>
</clipPath>
</defs>
</svg>
