<svg width="111" height="38" viewBox="0 0 111 38" fill="none" xmlns="http://www.w3.org/2000/svg">
<g clip-path="url(#clip0_309_286)">
<path fill-rule="evenodd" clip-rule="evenodd" d="M8.81848 23.0095H4.62144C4.39405 23.0095 4.1986 23.1167 4.07646 23.3084C3.95431 23.5003 3.93972 23.7227 4.03583 23.9288L9.00544 34.5863C9.11706 34.8256 9.24234 35.0545 9.37972 35.2724C9.53556 35.5196 9.82509 35.6297 10.1057 35.5485C10.3864 35.4675 10.5725 35.22 10.5725 34.9278V24.7636C10.5725 23.7975 9.78465 23.0096 8.81858 23.0096L8.81848 23.0095ZM20.7691 0.253987L3.57837 8.27009C0.48626 9.71201 -0.863883 13.4215 0.57803 16.5135L0.799423 16.9883C0.908088 17.2213 1.1281 17.3615 1.38503 17.3615H13.8717C14.8378 17.3615 15.6257 18.1496 15.6257 19.1155V37.3519C15.6257 37.5703 15.7243 37.7586 15.9039 37.883C16.0834 38.0074 16.2942 38.0336 16.4987 37.957C17.977 37.403 20.407 36.139 21.7763 35.4784C22.005 35.368 22.1417 35.1504 22.1417 34.8965V24.7635C22.1417 23.7974 21.3538 23.0095 20.3878 23.0095H19.2499C18.2838 23.0095 17.4959 22.2216 17.4959 21.2555C17.4959 20.5422 17.4959 19.8288 17.4959 19.1155C17.4959 18.1494 18.2838 17.3615 19.2499 17.3615H20.3878C21.3538 17.3615 22.1417 16.5736 22.1417 15.6075V0.648671C22.1417 0.429772 22.0429 0.241524 21.8629 0.117163C21.6828 -0.00728912 21.4718 -0.0331398 21.2671 0.0442276C21.0999 0.107377 20.9337 0.177358 20.7691 0.254172V0.253987ZM12.9955 15.9322C11.4359 15.9322 10.1714 14.6679 10.1714 13.1082C10.1714 11.5486 11.4359 10.2842 12.9955 10.2842C14.5551 10.2842 15.8195 11.5486 15.8195 13.1082C15.8195 14.6679 14.5551 15.9322 12.9955 15.9322Z" fill="#FEFEFE"/>
<path fill-rule="evenodd" clip-rule="evenodd" d="M27.79 24.7633V31.6567C27.79 31.8841 27.8972 32.0795 28.0891 32.2017C28.2808 32.3238 28.5032 32.3384 28.7093 32.2423L35.3216 29.1588C37.5233 28.1322 38.8418 25.9558 38.8982 23.6714C38.9026 23.4906 38.8408 23.3336 38.7146 23.2041C38.5884 23.0747 38.4328 23.0092 38.252 23.0092H29.544C28.5779 23.0092 27.79 23.797 27.79 24.7631V24.7633Z" fill="white"/>
<path fill-rule="evenodd" clip-rule="evenodd" d="M29.5441 17.3612H35.6502C35.8776 17.3612 36.0731 17.254 36.1952 17.0623C36.3173 16.8704 36.3319 16.648 36.2358 16.4419L30.3058 3.72471C29.946 2.95316 29.4641 2.27532 28.8938 1.70356C28.7052 1.51448 28.4361 1.46066 28.1893 1.56267C27.9426 1.66478 27.79 1.89282 27.79 2.15982V15.6072C27.79 16.5732 28.5779 17.3611 29.544 17.3611L29.5441 17.3612Z" fill="white"/>
<path d="M47.1788 12.9402V5.15976H48.8279V12.9402H47.1788ZM53.7861 12.9402H52.1371V6.53271H50.0249V5.15967H55.8983V6.53271H53.7861V12.9402ZM50.1792 22.6959H48.5302V16.2885H46.418V14.9154H52.2914V16.2885H50.1792V22.6959ZM57.4929 22.6959L56.9281 20.8435H54.0913L53.5283 22.6959H51.7503L54.4963 14.8828H56.5123L59.2692 22.6959H57.493H57.4929ZM56.534 19.4595C56.0128 17.7814 55.7186 16.8315 55.6531 16.6118C55.5878 16.392 55.5406 16.2177 55.5132 16.0905C55.3953 16.5447 55.0592 17.667 54.5071 19.4596H56.534V19.4595ZM59.4798 17.5853L59.4035 17.4672C59.4816 17.1439 59.6106 16.7389 59.7903 16.2503C59.9702 15.7618 60.1536 15.3169 60.3406 14.9154H61.5066C61.2723 15.8634 61.0925 16.7533 60.969 17.5852H59.4798V17.5853ZM62.6108 22.6959V14.9155H64.2599V21.3339H67.4164V22.696H62.6108V22.6959ZM68.7676 22.6959V14.9155H70.4167V22.6959H68.7676ZM75.6691 22.6959L73.7948 16.5918H73.7476C73.8148 17.8341 73.8493 18.6622 73.8493 19.0764V22.6959H72.3745V14.9155H74.6211L76.4609 20.8652H76.4936L78.4478 14.9155H80.6926V22.6959H79.1542V19.0128C79.1542 18.8402 79.1579 18.6386 79.1634 18.4116C79.1688 18.1846 79.1924 17.5817 79.2342 16.6027H79.1869L77.1801 22.696H75.669L75.6691 22.6959ZM53.5119 24.6712V29.7074C53.5119 30.2813 53.383 30.7862 53.1269 31.2185C52.8689 31.6526 52.4985 31.9831 52.0117 32.2138C51.525 32.4444 50.9511 32.5606 50.2863 32.5606C49.2875 32.5606 48.5102 32.3045 47.9562 31.7907C47.4023 31.2784 47.1262 30.5774 47.1262 29.6857V24.6713H48.7698V29.435C48.7698 30.0361 48.8915 30.4757 49.1313 30.7554C49.3729 31.0369 49.7724 31.1768 50.33 31.1768C50.8694 31.1768 51.2598 31.0352 51.5033 30.7536C51.7466 30.4721 51.8683 30.029 51.8683 29.426V24.6713H53.5119V24.6712ZM57.8362 27.8749L59.4598 24.6712H61.236L58.6553 29.424V32.4516H57.0171V29.4767L54.4364 24.6712H56.2235L57.8362 27.8749ZM68.5481 24.6712V29.7074C68.5481 30.2813 68.4191 30.7862 68.163 31.2185C67.905 31.6526 67.5346 31.9831 67.0478 32.2138C66.5611 32.4444 65.9872 32.5606 65.3225 32.5606C64.3236 32.5606 63.5463 32.3045 62.9923 31.7907C62.4385 31.2784 62.1623 30.5774 62.1623 29.6857V24.6713H63.806V29.435C63.806 30.0361 63.9276 30.4757 64.1674 30.7554C64.409 31.0369 64.8085 31.1768 65.3661 31.1768C65.9055 31.1768 66.2959 31.0352 66.5394 30.7536C66.7828 30.4721 66.9044 30.029 66.9044 29.426V24.6713H68.5481V24.6712ZM75.0463 30.2941C75.0463 30.9969 74.792 31.549 74.2871 31.954C73.7822 32.3591 73.0776 32.5605 72.1768 32.5605C71.3468 32.5605 70.6112 32.4043 69.9737 32.092V30.5591C70.4986 30.7934 70.9436 30.9586 71.3068 31.0549C71.6701 31.1512 72.0024 31.1984 72.3039 31.1984C72.6672 31.1984 72.945 31.1294 73.1375 30.9914C73.3318 30.8533 73.4281 30.6463 73.4281 30.3739C73.4281 30.2213 73.3863 30.0851 73.301 29.9671C73.2156 29.8471 73.0903 29.7328 72.925 29.6237C72.7597 29.5129 72.4236 29.3368 71.9171 29.0971C71.4411 28.8719 71.0834 28.6576 70.8455 28.4524C70.6075 28.2472 70.4186 28.0074 70.277 27.7332C70.1336 27.4608 70.0627 27.1412 70.0627 26.7761C70.0627 26.0878 70.2971 25.5465 70.7638 25.1525C71.2305 24.7584 71.8752 24.5623 72.6979 24.5623C73.103 24.5623 73.488 24.6095 73.8567 24.7058C74.2236 24.802 74.6067 24.9364 75.0082 25.1108L74.476 26.393C74.0601 26.2223 73.7169 26.1042 73.4463 26.037C73.1739 25.9698 72.907 25.9353 72.6454 25.9353C72.333 25.9353 72.0933 26.008 71.9262 26.1533C71.7591 26.2986 71.6755 26.4893 71.6755 26.7236C71.6755 26.8689 71.7101 26.996 71.7773 27.1032C71.8445 27.2121 71.9516 27.3156 72.0988 27.4174C72.2458 27.5191 72.5946 27.7007 73.1449 27.9622C73.8731 28.3109 74.3708 28.6596 74.6414 29.0083C74.9102 29.3588 75.0465 29.7856 75.0465 30.2942L75.0463 30.2941ZM82.8267 32.4517H81.1831V29.0954H78.1029V32.4517H76.4538V24.6713H78.1029V27.7224H81.1831V24.6713H82.8267V32.4517ZM88.0864 32.4517L86.2121 26.3475H86.1648C86.2321 27.5898 86.2666 28.418 86.2666 28.8321V32.4517H84.7918V24.6713H87.0384L88.8781 30.621H88.9109L90.865 24.6713H93.1099V32.4517H91.5715V28.7685C91.5715 28.596 91.5752 28.3943 91.5806 28.1674C91.5861 27.9404 91.6096 27.3374 91.6515 26.3585H91.6042L89.5974 32.4518H88.0863L88.0864 32.4517ZM99.8298 32.4517L99.2649 30.5992H96.4281L95.8651 32.4517H94.0871L96.8331 24.6386H98.8491L101.606 32.4517H99.8299H99.8298ZM98.8708 29.2153C98.3496 27.5372 98.0554 26.5873 97.99 26.3676C97.9246 26.1477 97.8774 25.9734 97.8501 25.8463C97.7321 26.3004 97.396 27.4227 96.8439 29.2154H98.8708V29.2153ZM107.18 30.2941C107.18 30.9969 106.926 31.549 106.421 31.954C105.916 32.3591 105.211 32.5605 104.31 32.5605C103.48 32.5605 102.745 32.4043 102.107 32.092V30.5591C102.632 30.7934 103.077 30.9586 103.44 31.0549C103.804 31.1512 104.136 31.1984 104.437 31.1984C104.801 31.1984 105.078 31.1294 105.271 30.9914C105.465 30.8533 105.562 30.6463 105.562 30.3739C105.562 30.2213 105.52 30.0851 105.434 29.9671C105.349 29.8471 105.224 29.7328 105.058 29.6237C104.893 29.5129 104.557 29.3368 104.051 29.0971C103.575 28.8719 103.217 28.6576 102.979 28.4524C102.741 28.2472 102.552 28.0074 102.411 27.7332C102.267 27.4608 102.196 27.1412 102.196 26.7761C102.196 26.0878 102.431 25.5465 102.897 25.1525C103.364 24.7584 104.009 24.5623 104.831 24.5623C105.236 24.5623 105.621 24.6095 105.99 24.7058C106.357 24.802 106.74 24.9364 107.142 25.1108L106.609 26.393C106.194 26.2223 105.85 26.1042 105.58 26.037C105.307 25.9698 105.04 25.9353 104.779 25.9353C104.466 25.9353 104.227 26.008 104.06 26.1533C103.893 26.2986 103.809 26.4893 103.809 26.7236C103.809 26.8689 103.844 26.996 103.911 27.1032C103.978 27.2121 104.085 27.3156 104.232 27.4174C104.379 27.5191 104.728 27.7007 105.278 27.9622C106.007 28.3109 106.504 28.6596 106.775 29.0083C107.044 29.3588 107.18 29.7856 107.18 30.2942L107.18 30.2941ZM108.587 32.4517V24.6713H110.236V32.4517H108.587Z" fill="#FEFEFE"/>
</g>
<defs>
<clipPath id="clip0_309_286">
<rect width="110.236" height="38" fill="white"/>
</clipPath>
</defs>
</svg>
