<svg width="200" height="200" viewBox="0 0 200 200" fill="none" xmlns="http://www.w3.org/2000/svg">
<g id="Switch container" clip-path="url(#clip0_2151_1541)">
<g id="Switch container_2">
<g id="Switch container_3">
<g id="Switch">
<path id="Vector" d="M103.219 188.678C149.902 188.678 187.761 151.104 187.761 104.705C187.761 58.3063 149.902 20.7319 103.219 20.7319C56.5358 20.7319 18.6768 58.3063 18.6768 104.705C18.6768 151.104 56.5358 188.678 103.219 188.678Z" fill="#EAEEF9"/>
<g id="Button">
<path id="Vector_2" d="M167.979 93.7463V145.126C167.979 155.801 159.297 164.483 148.48 164.483H58.2449C47.5704 164.483 38.8884 155.943 38.7461 145.269C38.7461 145.126 38.7461 145.126 38.7461 144.984V93.7463C38.7461 93.604 38.7461 93.604 38.7461 93.4616C38.7461 93.177 38.7461 92.8923 38.8884 92.6077C39.0307 92.1807 39.1731 91.896 39.3154 91.4691L63.511 45.2128C64.365 43.3625 66.2152 42.3662 68.2078 42.3662H138.375C140.368 42.3662 142.076 43.3625 143.072 45.2128L167.267 91.4691C167.41 91.7537 167.552 92.1807 167.694 92.6077C167.979 92.8923 167.979 93.3193 167.979 93.7463Z" fill="#D5DDEA"/>
</g>
<g id="Card">
<g id="Vector_3" filter="url(#filter0_d_2151_1541)">
<path d="M167.979 93.7453V150.391C167.979 158.219 161.717 164.482 153.746 164.482H52.9788C45.1508 164.482 38.7461 158.219 38.7461 150.391V93.4606C38.7461 93.176 38.7461 92.8913 38.8884 92.6067H71.339C76.1781 92.6067 80.1633 96.4495 80.1633 101.431C80.1633 103.851 81.1596 106.128 82.7252 107.693C84.4331 109.401 86.4257 110.255 88.9876 110.255H117.88C122.719 110.255 126.704 106.412 126.704 101.431C126.704 99.0114 127.701 96.7342 129.266 95.1686C130.974 93.4607 132.967 92.6067 135.386 92.6067H167.694C167.979 92.8913 167.979 93.3183 167.979 93.7453Z" fill="url(#paint0_linear_2151_1541)"/>
</g>
</g>
</g>
<path id="Vector_4" d="M185.601 64.5678C188.824 64.5678 191.436 61.9552 191.436 58.7324C191.436 55.5096 188.824 52.897 185.601 52.897C182.378 52.897 179.766 55.5096 179.766 58.7324C179.766 61.9552 182.378 64.5678 185.601 64.5678Z" fill="#EAEEF9"/>
<path id="Vector_5" d="M179.77 45.639C181.971 45.639 183.755 43.8548 183.755 41.6539C183.755 39.4529 181.971 37.6687 179.77 37.6687C177.569 37.6687 175.785 39.4529 175.785 41.6539C175.785 43.8548 177.569 45.639 179.77 45.639Z" fill="#EAEEF9"/>
<path id="Vector_6" d="M18.368 58.7328C20.5689 58.7328 22.3531 56.9486 22.3531 54.7476C22.3531 52.5467 20.5689 50.7625 18.368 50.7625C16.167 50.7625 14.3828 52.5467 14.3828 54.7476C14.3828 56.9486 16.167 58.7328 18.368 58.7328Z" fill="#EAEEF9"/>
<path id="Vector_7" d="M9.40101 146.407C13.4885 146.407 16.802 143.094 16.802 139.006C16.802 134.919 13.4885 131.605 9.40101 131.605C5.31354 131.605 2 134.919 2 139.006C2 143.094 5.31354 146.407 9.40101 146.407Z" fill="#EAEEF9"/>
</g>
<path id="Vector_8" d="M138.972 25.2412C140.829 45.5188 141.758 50.1625 137.552 68.5266C136.185 72.6093 134.817 77.0809 131.886 80.1915C127.783 85.0519 120.359 87.1904 114.302 85.6351C108.05 84.0798 102.971 78.6362 101.798 72.0261C100.821 67.9434 102.189 63.083 105.706 60.5556C109.418 58.2226 114.693 58.8059 117.819 61.7221C121.336 64.6383 122.704 69.1098 122.508 73.387C122.313 77.6641 120.75 81.9412 118.601 85.6351C113.742 94.7179 111.742 94.6846 101.798 109.602" stroke="#ABB5CC" stroke-width="2.84654" stroke-miterlimit="10" stroke-dasharray="5.69 5.69"/>
<path id="Vector_9" d="M149.866 17.6886C149.123 20.3982 146.153 21.3835 143.182 19.6592C139.964 18.1813 137.736 16.9496 138.231 14.4863C138.974 12.023 141.944 11.7767 145.41 11.5304C149.618 11.0377 150.361 14.979 149.866 17.6886Z" fill="#DAE2EB"/>
<path id="Vector_10" d="M125.852 20.1521C127.09 22.369 130.555 23.847 133.031 21.6301C135.754 19.1668 137.982 17.4425 136.744 14.9792C135.506 12.7622 133.526 13.5012 129.317 13.9938C125.852 14.7328 124.367 17.6888 125.852 20.1521Z" fill="#DAE2EB"/>
<path id="Vector_11" d="M136.745 11.0377C138.478 10.7914 140.211 11.7767 140.706 13.2547C140.953 13.7473 141.201 14.4863 141.201 14.979C141.696 18.4276 140.458 21.3836 138.478 21.6299C136.25 22.1225 134.022 19.6592 133.774 16.457C133.774 15.4716 133.774 14.979 133.774 14.24C134.022 12.5157 135.012 11.2841 136.745 11.0377C136.993 11.0377 136.745 11.0377 136.745 11.0377Z" fill="#989FB0"/>
<g id="Slider">
<path id="Vector_12" d="M87.1219 130.692C88.9253 130.692 90.3873 129.23 90.3873 127.426C90.3873 125.623 88.9253 124.161 87.1219 124.161C85.3184 124.161 83.8564 125.623 83.8564 127.426C83.8564 129.23 85.3184 130.692 87.1219 130.692Z" fill="#989FB0"/>
<path id="Vector_13" d="M119.601 130.692C121.405 130.692 122.867 129.23 122.867 127.426C122.867 125.623 121.405 124.161 119.601 124.161C117.798 124.161 116.336 125.623 116.336 127.426C116.336 129.23 117.798 130.692 119.601 130.692Z" fill="#989FB0"/>
<path id="Vector_14" d="M108.654 152.138H98.4163C96.8277 152.138 95.5039 150.815 95.5039 149.226C95.5039 147.638 96.8277 146.314 98.4163 146.314H108.566C110.154 146.314 111.478 147.638 111.478 149.226C111.566 150.815 110.242 152.138 108.654 152.138Z" fill="#989FB0"/>
</g>
</g>
</g>
<defs>
<filter id="filter0_d_2151_1541" x="7.43413" y="76.9507" width="191.857" height="134.499" filterUnits="userSpaceOnUse" color-interpolation-filters="sRGB">
<feFlood flood-opacity="0" result="BackgroundImageFix"/>
<feColorMatrix in="SourceAlpha" type="matrix" values="0 0 0 0 0 0 0 0 0 0 0 0 0 0 0 0 0 0 127 0" result="hardAlpha"/>
<feOffset dy="15.656"/>
<feGaussianBlur stdDeviation="15.656"/>
<feColorMatrix type="matrix" values="0 0 0 0 0.397708 0 0 0 0 0.47749 0 0 0 0 0.575 0 0 0 0.27 0"/>
<feBlend mode="normal" in2="BackgroundImageFix" result="effect1_dropShadow_2151_1541"/>
<feBlend mode="normal" in="SourceGraphic" in2="effect1_dropShadow_2151_1541" result="shape"/>
</filter>
<linearGradient id="paint0_linear_2151_1541" x1="103.32" y1="90.9441" x2="103.32" y2="165.257" gradientUnits="userSpaceOnUse">
<stop stop-color="#FDFEFF"/>
<stop offset="0.9964" stop-color="#ECF0F5"/>
</linearGradient>
<clipPath id="clip0_2151_1541">
<rect width="200" height="200" fill="white"/>
</clipPath>
</defs>
</svg>
