<svg width="30" height="29" viewBox="0 0 30 29" fill="none" xmlns="http://www.w3.org/2000/svg">
<g id="award-03">
<path id="Fill" opacity="0.12" d="M10.0424 18.5657L9 26.4137L14.5061 23.1101C14.6857 23.0023 14.7755 22.9485 14.8713 22.9274C14.9561 22.9088 15.0439 22.9088 15.1287 22.9274C15.2245 22.9485 15.3143 23.0023 15.4939 23.1101L21 26.4137L19.9583 18.5623L19.6593 19.2843C19.4736 19.7325 19.1175 20.0886 18.6692 20.2743C18.221 20.46 17.7173 20.46 17.2691 20.2743L15.6996 19.6242C15.2513 19.439 14.7478 19.4393 14.2999 19.6252L12.7292 20.2749C12.2812 20.4602 11.778 20.46 11.3301 20.2745C10.8823 20.089 10.5263 19.7332 10.3405 19.2855L10.0424 18.5657Z" fill="black"/>
<path id="Icon" d="M10.0424 18.5657L9 26.4138L14.5061 23.1102C14.6857 23.0024 14.7755 22.9485 14.8713 22.9275C14.9561 22.9089 15.0439 22.9089 15.1287 22.9275C15.2245 22.9485 15.3143 23.0024 15.4939 23.1102L21 26.4138L19.9583 18.5623M20.3111 5.11247C20.4964 5.5607 20.8521 5.91698 21.3 6.10298L22.8707 6.7536C23.319 6.93927 23.6751 7.29541 23.8608 7.74367C24.0464 8.19193 24.0464 8.69559 23.8608 9.14385L23.2106 10.7134C23.0249 11.1619 23.0246 11.6661 23.2112 12.1143L23.8602 13.6834C23.9523 13.9055 23.9996 14.1434 23.9997 14.3838C23.9997 14.6241 23.9524 14.8621 23.8604 15.0842C23.7685 15.3062 23.6336 15.5079 23.4637 15.6779C23.2937 15.8478 23.0919 15.9825 22.8699 16.0744L21.3003 16.7246C20.8521 16.9099 20.4958 17.2657 20.3098 17.7136L19.6593 19.2843C19.4736 19.7326 19.1175 20.0887 18.6692 20.2744C18.221 20.4601 17.7173 20.4601 17.2691 20.2744L15.6996 19.6243C15.2513 19.439 14.7478 19.4394 14.2999 19.6253L12.7292 20.275C12.2812 20.4602 11.778 20.4601 11.3301 20.2746C10.8823 20.089 10.5263 19.7333 10.3405 19.2855L9.68975 17.7144C9.50442 17.2661 9.14869 16.9098 8.70076 16.7238L7.1301 16.0732C6.68205 15.8876 6.32603 15.5317 6.14029 15.0837C5.95456 14.6357 5.95431 14.1323 6.13959 13.6841L6.78972 12.1145C6.97493 11.6662 6.97455 11.1628 6.78867 10.7148L6.13948 9.14292C6.04743 8.92091 6.00004 8.68293 6 8.44259C5.99996 8.20225 6.04728 7.96425 6.13925 7.74221C6.23122 7.52016 6.36604 7.31842 6.53601 7.1485C6.70598 6.97858 6.90776 6.84381 7.12983 6.75191L8.69937 6.10176C9.14718 5.91659 9.50324 5.5613 9.68937 5.11387L10.34 3.54315C10.5256 3.09489 10.8818 2.73875 11.33 2.55307C11.7782 2.3674 12.2819 2.3674 12.7301 2.55307L14.2997 3.20322C14.7479 3.38844 15.2514 3.38806 15.6993 3.20217L17.2707 2.55408C17.7189 2.36851 18.2224 2.36855 18.6705 2.55419C19.1187 2.73983 19.4748 3.09586 19.6605 3.54401L20.3113 5.1152L20.3111 5.11247Z" stroke="white" stroke-width="2" stroke-linecap="round" stroke-linejoin="round"/>
</g>
</svg>
