<svg width="96" height="96" viewBox="0 0 96 96" fill="none" xmlns="http://www.w3.org/2000/svg">
<g id="award-03">
<path id="Fill" opacity="0.12" d="M31.4746 61.8394L28 87.9997L46.3536 76.9875C46.9522 76.6284 47.2515 76.4488 47.571 76.3786C47.8536 76.3166 48.1464 76.3166 48.429 76.3786C48.7485 76.4488 49.0478 76.6284 49.6464 76.9875L68 87.9997L64.5277 61.8281L63.5308 64.2348C62.9119 65.729 61.7249 66.9161 60.2307 67.535C58.7366 68.1539 57.0578 68.1539 55.5636 67.535L50.3319 65.3679C48.8377 64.7505 47.1595 64.7517 45.6662 65.3714L40.4307 67.537C38.9374 68.1545 37.26 68.1539 35.7671 67.5355C34.2742 66.9171 33.0878 65.7314 32.4684 64.2388L31.4746 61.8394Z" fill="black"/>
<path id="Icon" d="M31.4746 61.8397L28 88L46.3536 76.9878C46.9522 76.6287 47.2515 76.4491 47.571 76.3789C47.8536 76.3169 48.1464 76.3169 48.429 76.3789C48.7485 76.4491 49.0478 76.6287 49.6464 76.9878L68 88L64.5277 61.8284M65.7035 16.9955C66.3213 18.4896 67.5071 19.6772 69.0002 20.2972L74.2357 22.4659C75.7298 23.0848 76.9169 24.272 77.5358 25.7662C78.1547 27.2604 78.1547 28.9392 77.5358 30.4334L75.3688 35.6654C74.7496 37.1603 74.7487 38.8408 75.3707 40.335L77.534 45.5654C77.8408 46.3054 77.9988 47.0987 77.9989 47.8998C77.9991 48.701 77.8413 49.4943 77.5348 50.2344C77.2282 50.9746 76.7788 51.6471 76.2122 52.2135C75.6457 52.7799 74.9731 53.2291 74.2328 53.5354L69.0011 55.7026C67.507 56.3204 66.3195 57.5062 65.6995 58.9993L63.5308 64.2351C62.9119 65.7293 61.7249 66.9164 60.2307 67.5353C58.7366 68.1542 57.0578 68.1542 55.5636 67.5353L50.3319 65.3682C48.8377 64.7508 47.1595 64.752 45.6662 65.3717L40.4307 67.5373C38.9374 68.1547 37.26 68.1542 35.7671 67.5358C34.2742 66.9174 33.0878 65.7317 32.4684 64.2391L30.2992 59.0018C29.6814 57.5077 28.4956 56.3201 27.0025 55.7001L21.767 53.5314C20.2735 52.9127 19.0868 51.7263 18.4676 50.233C17.8485 48.7397 17.8477 47.0616 18.4653 45.5676L20.6324 40.3356C21.2498 38.8414 21.2485 37.1632 20.6289 35.6698L18.4649 30.4304C18.1581 29.6903 18.0001 28.897 18 28.0959C17.9999 27.2948 18.1576 26.5015 18.4642 25.7613C18.7707 25.0211 19.2201 24.3487 19.7867 23.7823C20.3533 23.2159 21.0259 22.7667 21.7661 22.4603L26.9979 20.2931C28.4906 19.6759 29.6775 18.4916 30.2979 17.0002L32.4665 11.7644C33.0854 10.2702 34.2725 9.0831 35.7667 8.46419C37.2608 7.84527 38.9396 7.84527 40.4337 8.46419L45.6655 10.6313C47.1597 11.2487 48.8379 11.2475 50.3312 10.6278L55.5689 8.46755C57.0629 7.84898 58.7413 7.84911 60.2351 8.4679C61.729 9.08669 62.9159 10.2735 63.5349 11.7673L65.7042 17.0046L65.7035 16.9955Z" stroke="#1A3560" stroke-width="8" stroke-linecap="round" stroke-linejoin="round"/>
</g>
</svg>
