<svg width="24" height="25" viewBox="0 0 24 25" fill="none" xmlns="http://www.w3.org/2000/svg">
<g id="briefcase">
<path id="Icon" d="M19.2 7.91382H4.8C3.80589 7.91382 3 8.71971 3 9.71382V18.7138C3 19.7079 3.80589 20.5138 4.8 20.5138H19.2C20.1941 20.5138 21 19.7079 21 18.7138V9.71382C21 8.71971 20.1941 7.91382 19.2 7.91382Z" stroke="white" stroke-width="2" stroke-linecap="round" stroke-linejoin="round"/>
<path id="Icon_2" d="M15.5999 20.5138V6.11381C15.5999 5.63642 15.4103 5.17859 15.0727 4.84102C14.7351 4.50345 14.2773 4.31381 13.7999 4.31381H10.1999C9.72251 4.31381 9.26468 4.50345 8.92711 4.84102C8.58955 5.17859 8.3999 5.63642 8.3999 6.11381V20.5138" stroke="white" stroke-width="1.8" stroke-linecap="round" stroke-linejoin="round"/>
</g>
</svg>
