<svg width="96" height="96" viewBox="0 0 96 96" fill="none" xmlns="http://www.w3.org/2000/svg">
<g id="globe-05">
<g id="Fill" opacity="0.12">
<path d="M68 48C76 40 84 32.8366 84 24C84 15.1634 76.8366 8 68 8C59.1634 8 52 15.1634 52 24C52 32.8366 60 40 68 48Z" fill="black"/>
<path d="M42.0002 87.5531L42.0006 78.7398C42.0007 78.2624 42.1714 77.8008 42.4821 77.4383L52.4252 65.8377C53.2424 64.8844 52.9892 63.4226 51.899 62.7997L40.4741 56.271C40.1637 56.0937 39.9065 55.8363 39.7293 55.5258L32.2818 42.4746C31.8942 41.7954 31.1463 41.4044 30.3673 41.4737L8.25673 43.4431C8.08713 44.9386 8 46.4592 8 48.0001C8 68.0523 22.7551 84.6583 42.0002 87.5531Z" fill="black"/>
</g>
<path id="Icon" d="M60 9.83121C56.2118 8.64142 52.1808 8 48 8C25.9086 8 8 25.9086 8 48C8 70.0914 25.9086 88 48 88C70.0914 88 88 70.0914 88 48C88 41.1387 86.2725 34.6809 83.2286 29.0378M68 23H68.02M42.0002 87.553L42.0006 78.7397C42.0007 78.2623 42.1714 77.8007 42.4821 77.4382L52.4252 65.8376C53.2424 64.8843 52.9892 63.4225 51.899 62.7996L40.4741 56.2709C40.1637 56.0936 39.9065 55.8362 39.7293 55.5257L32.2818 42.4745C31.8942 41.7953 31.1463 41.4043 30.3673 41.4736L8.25673 43.443M84 24C84 32.8366 76 40 68 48C60 40 52 32.8366 52 24C52 15.1634 59.1634 8 68 8C76.8366 8 84 15.1634 84 24ZM69 23C69 23.5523 68.5523 24 68 24C67.4477 24 67 23.5523 67 23C67 22.4477 67.4477 22 68 22C68.5523 22 69 22.4477 69 23Z" stroke="#1A3560" stroke-width="8" stroke-linecap="round" stroke-linejoin="round"/>
</g>
</svg>
