<svg width="202" height="21" viewBox="0 0 202 21" fill="none" xmlns="http://www.w3.org/2000/svg">
<g id="plus">
<g id="Group">
<path id="Vector" d="M19.9678 10.1927C19.9678 4.63141 24.5465 0.133911 30.2715 0.133911C36.0365 0.133911 40.6165 4.63391 40.6165 10.1927C40.6165 15.7127 36.0365 20.2927 30.2715 20.2927C24.5465 20.2927 19.9678 15.7077 19.9678 10.1927ZM35.669 10.1927C35.669 7.41266 33.2565 4.95891 30.2715 4.95891C27.3278 4.95891 24.9153 7.41266 24.9153 10.1927C24.9153 13.0139 27.3278 15.4677 30.2715 15.4677C33.2615 15.4677 35.669 13.0139 35.669 10.1927Z" fill="#0056D2"/>
<path id="Vector_2" d="M123.872 10.3564C123.872 4.26391 128.82 0.133911 133.318 0.133911C136.385 0.133911 138.143 1.07391 139.328 2.87391L139.8 0.498911H144.398V19.9239H139.8L139.206 17.9239C137.857 19.3964 136.18 20.2989 133.318 20.2989C128.902 20.2927 123.872 16.4077 123.872 10.3564ZM139.573 10.3152C139.568 8.88962 138.996 7.52464 137.984 6.5205C136.973 5.51636 135.603 4.95531 134.178 4.96078C132.752 4.96626 131.387 5.5378 130.383 6.54967C129.379 7.56155 128.818 8.93087 128.823 10.3564C128.823 13.0552 131.236 15.4677 134.181 15.4677C137.162 15.4677 139.573 13.0552 139.573 10.3152Z" fill="#0056D2"/>
<path id="Vector_3" d="M118.221 2.75004V0.500044H113.192V19.9238H118.221V9.45754C118.221 6.30879 119.776 4.67379 122.471 4.67379C122.65 4.67379 122.82 4.6863 122.986 4.70255L123.919 0.0137939C121.297 0.0275439 119.397 0.926294 118.221 2.75004Z" fill="#0056D2"/>
<path id="Vector_4" d="M67.686 2.75137V0.501373L62.6572 0.512623L62.6997 19.9339L67.7285 19.9226L67.701 9.45762C67.6935 6.31012 69.2447 4.67137 71.9422 4.66512C72.1143 4.66563 72.2862 4.67522 72.4572 4.69387L73.3847 0.00012207C70.7597 0.0213721 68.8572 0.923873 67.686 2.75137Z" fill="#0056D2"/>
<path id="Vector_5" d="M42.3604 12.4001V0.501343H47.3879V11.7876C47.3879 14.2813 48.7778 15.7538 51.1903 15.7538C53.8891 15.7538 55.4403 14.1176 55.4403 10.9688V0.501343H60.4703V19.9238H55.4441V17.6738C54.2591 19.5138 52.3366 20.4138 49.6791 20.4138C45.1816 20.4151 42.3604 17.1438 42.3604 12.4001Z" fill="#0056D2"/>
<path id="Vector_6" d="M91.3252 10.2152C91.3365 4.77643 95.229 0.122681 101.403 0.133931C107.128 0.145181 111.166 4.73143 111.153 10.1339C111.154 10.6681 111.112 11.2015 111.028 11.7289L96.2265 11.7014C96.794 14.0327 98.7127 15.7127 101.616 15.7189C103.374 15.7189 105.256 15.0714 106.404 13.6014L109.834 16.3514C108.07 18.8427 104.959 20.3089 101.649 20.3027C95.8052 20.2827 91.3152 15.8989 91.3252 10.2152ZM106.09 8.19768C105.808 6.23518 103.766 4.71768 101.354 4.71393C99.0227 4.71393 97.1402 6.09643 96.4002 8.18018L106.09 8.19768Z" fill="#0056D2"/>
<path id="Vector_7" d="M73.417 15.6901L77.887 13.3501C78.6257 14.9514 80.1032 15.8951 82.197 15.8951C84.1257 15.8951 84.8645 15.2801 84.8645 14.4176C84.8645 11.2926 74.2757 13.1864 74.2757 6.04263C74.2757 2.10263 77.7232 0.0101318 81.9907 0.0101318C85.2332 0.0101318 88.1057 1.44638 89.6657 4.11388L85.2357 6.45763C84.5795 5.14388 83.3482 4.40513 81.7882 4.40513C80.2707 4.40513 79.5307 4.93888 79.5307 5.84138C79.5307 8.87888 90.1195 6.95013 90.1195 14.2164C90.1195 17.9926 87.042 20.2901 82.0757 20.2901C77.8482 20.2864 74.8932 18.8914 73.417 15.6901Z" fill="#0056D2"/>
<path id="Vector_8" d="M-0.000976562 10.1927C-0.000976562 4.59141 4.57777 0.0926621 10.3028 0.0926621C12.0241 0.080597 13.7214 0.497025 15.2417 1.30442C16.762 2.11181 18.0575 3.28479 19.0115 4.71766L14.719 7.20766C14.2223 6.49791 13.5612 5.91892 12.7922 5.52015C12.0232 5.12137 11.169 4.91466 10.3028 4.91766C7.35902 4.91766 4.94652 7.37141 4.94652 10.1927C4.94652 13.0139 7.35902 15.4677 10.3028 15.4677C11.2099 15.4736 12.1034 15.2469 12.898 14.8092C13.6926 14.3715 14.3617 13.7375 14.8415 12.9677L19.0915 15.5027C18.1492 16.9774 16.8488 18.1897 15.3116 19.0263C13.7744 19.863 12.0504 20.2969 10.3003 20.2877C4.57777 20.2927 -0.000976562 15.7077 -0.000976562 10.1927Z" fill="#0056D2"/>
</g>
<g id="Group_2">
<rect id="Rectangle 493" x="154.638" y="0.0826416" width="46.625" height="20.25" fill="#0056D2"/>
<g id="PLUS">
<path d="M158.364 15.5826V4.30579H162.807C163.66 4.30579 164.386 4.46977 164.987 4.79773C165.592 5.12065 166.054 5.5697 166.372 6.1449C166.694 6.72009 166.856 7.38359 166.856 8.13538C166.856 8.88212 166.694 9.54057 166.372 10.1107C166.049 10.6809 165.579 11.1274 164.964 11.4503C164.353 11.7682 163.614 11.9271 162.746 11.9271H159.916V10.0199H162.36C162.819 10.0199 163.198 9.93917 163.496 9.77771C163.798 9.61625 164.023 9.39425 164.169 9.11169C164.321 8.82914 164.396 8.5037 164.396 8.13538C164.396 7.75696 164.321 7.429 164.169 7.15149C164.023 6.86894 163.798 6.64945 163.496 6.49304C163.193 6.33663 162.812 6.25842 162.353 6.25842H160.741V15.5826H158.364Z" fill="white"/>
<path d="M168.675 15.5826V4.30579H171.052V13.6149H175.888V15.5826H168.675Z" fill="white"/>
<path d="M184.708 4.30579H187.092V11.6244C187.092 12.4468 186.895 13.1683 186.502 13.7889C186.113 14.4045 185.568 14.8838 184.867 15.2269C184.166 15.57 183.348 15.7416 182.415 15.7416C181.482 15.7416 180.664 15.57 179.963 15.2269C179.262 14.8838 178.717 14.4045 178.328 13.7889C177.94 13.1683 177.745 12.4468 177.745 11.6244V4.30579H180.122V11.4276C180.122 11.8565 180.218 12.2399 180.409 12.578C180.601 12.911 180.869 13.1734 181.212 13.3651C181.555 13.5518 181.956 13.6451 182.415 13.6451C182.879 13.6451 183.283 13.5518 183.626 13.3651C183.969 13.1734 184.234 12.911 184.421 12.578C184.612 12.2399 184.708 11.8565 184.708 11.4276V4.30579Z" fill="white"/>
<path d="M193.506 15.7416C192.597 15.7416 191.805 15.6028 191.129 15.3253C190.458 15.0478 189.933 14.6341 189.555 14.0841C189.182 13.5341 188.985 12.853 188.965 12.0406H191.265C191.296 12.414 191.407 12.7294 191.598 12.9867C191.79 13.239 192.047 13.4282 192.37 13.5543C192.693 13.6805 193.064 13.7435 193.483 13.7435C193.887 13.7435 194.237 13.6855 194.535 13.5695C194.838 13.4534 195.07 13.292 195.231 13.0851C195.398 12.8732 195.481 12.6285 195.481 12.351C195.481 12.0987 195.405 11.8868 195.254 11.7152C195.108 11.5437 194.891 11.3973 194.603 11.2762C194.321 11.1552 193.975 11.0467 193.566 10.9508L192.333 10.6481C191.384 10.421 190.635 10.0603 190.085 9.5658C189.535 9.06628 189.26 8.40027 189.26 7.56775C189.26 6.8866 189.444 6.29122 189.812 5.78162C190.186 5.26697 190.693 4.86837 191.334 4.58582C191.979 4.29822 192.714 4.15442 193.536 4.15442C194.374 4.15442 195.103 4.29822 195.723 4.58582C196.349 4.87341 196.836 5.27201 197.184 5.78162C197.537 6.29122 197.719 6.87903 197.729 7.54504H195.436C195.395 7.10608 195.206 6.76298 194.868 6.51575C194.535 6.26851 194.083 6.1449 193.513 6.1449C193.13 6.1449 192.802 6.2004 192.529 6.3114C192.262 6.41736 192.058 6.5662 191.916 6.75793C191.775 6.94967 191.704 7.16915 191.704 7.41638C191.704 7.67875 191.785 7.90076 191.947 8.0824C192.108 8.25899 192.322 8.40531 192.59 8.52136C192.862 8.63236 193.16 8.72571 193.483 8.80139L194.49 9.05115C194.979 9.16215 195.431 9.31099 195.844 9.49768C196.258 9.67932 196.616 9.90385 196.919 10.1713C197.227 10.4387 197.464 10.754 197.63 11.1173C197.797 11.4755 197.88 11.8893 197.88 12.3585C197.88 13.0498 197.706 13.6502 197.358 14.1598C197.015 14.6643 196.518 15.0554 195.867 15.3329C195.216 15.6053 194.429 15.7416 193.506 15.7416Z" fill="white"/>
</g>
</g>
</g>
</svg>
