<svg width="24" height="24" viewBox="0 0 24 24" fill="none" xmlns="http://www.w3.org/2000/svg">
<g id="server-01">
<g id="Fill" opacity="0.12">
<path d="M1.99902 5.2C1.99902 4.0799 1.99902 3.51984 2.21701 3.09202C2.40876 2.71569 2.71472 2.40973 3.09104 2.21799C3.51887 2 4.07892 2 5.19902 2H18.799C19.9191 2 20.4792 2 20.907 2.21799C21.2833 2.40973 21.5893 2.71569 21.781 3.09202C21.999 3.51984 21.999 4.0799 21.999 5.2V6.8C21.999 7.9201 21.999 8.48016 21.781 8.90798C21.5893 9.28431 21.2833 9.59027 20.907 9.78201C20.4792 10 19.9191 10 18.799 10H5.19902C4.07892 10 3.51887 10 3.09104 9.78201C2.71472 9.59027 2.40876 9.28431 2.21701 8.90798C1.99902 8.48016 1.99902 7.9201 1.99902 6.8V5.2Z" fill="#1A3560"/>
<path d="M1.99902 17.2C1.99902 16.0799 1.99902 15.5198 2.21701 15.092C2.40876 14.7157 2.71472 14.4097 3.09104 14.218C3.51887 14 4.07892 14 5.19902 14H18.799C19.9191 14 20.4792 14 20.907 14.218C21.2833 14.4097 21.5893 14.7157 21.781 15.092C21.999 15.5198 21.999 16.0799 21.999 17.2V18.8C21.999 19.9201 21.999 20.4802 21.781 20.908C21.5893 21.2843 21.2833 21.5903 20.907 21.782C20.4792 22 19.9191 22 18.799 22H5.19902C4.07892 22 3.51887 22 3.09104 21.782C2.71472 21.5903 2.40876 21.2843 2.21701 20.908C1.99902 20.4802 1.99902 19.9201 1.99902 18.8V17.2Z" fill="#1A3560"/>
</g>
<path id="Icon" d="M5.99902 6H6.00902M5.99902 18H6.00902M5.19902 10H18.799C19.9191 10 20.4792 10 20.907 9.78201C21.2833 9.59027 21.5893 9.28431 21.781 8.90798C21.999 8.48016 21.999 7.92011 21.999 6.8V5.2C21.999 4.0799 21.999 3.51984 21.781 3.09202C21.5893 2.71569 21.2833 2.40973 20.907 2.21799C20.4792 2 19.9191 2 18.799 2H5.19902C4.07892 2 3.51887 2 3.09104 2.21799C2.71472 2.40973 2.40876 2.71569 2.21701 3.09202C1.99902 3.51984 1.99902 4.07989 1.99902 5.2V6.8C1.99902 7.92011 1.99902 8.48016 2.21701 8.90798C2.40876 9.28431 2.71472 9.59027 3.09104 9.78201C3.51887 10 4.07892 10 5.19902 10ZM5.19902 22H18.799C19.9191 22 20.4792 22 20.907 21.782C21.2833 21.5903 21.5893 21.2843 21.781 20.908C21.999 20.4802 21.999 19.9201 21.999 18.8V17.2C21.999 16.0799 21.999 15.5198 21.781 15.092C21.5893 14.7157 21.2833 14.4097 20.907 14.218C20.4792 14 19.9191 14 18.799 14H5.19902C4.07892 14 3.51887 14 3.09104 14.218C2.71472 14.4097 2.40876 14.7157 2.21701 15.092C1.99902 15.5198 1.99902 16.0799 1.99902 17.2V18.8C1.99902 19.9201 1.99902 20.4802 2.21701 20.908C2.40876 21.2843 2.71472 21.5903 3.09104 21.782C3.51887 22 4.07892 22 5.19902 22Z" stroke="#1A3560" stroke-width="2" stroke-linecap="round" stroke-linejoin="round"/>
</g>
</svg>
