<svg width="24" height="25" viewBox="0 0 24 25" fill="none" xmlns="http://www.w3.org/2000/svg">
<g id="users">
<path id="Icon" d="M21.9 20.5137V18.7137C21.8994 17.9161 21.6339 17.1412 21.1452 16.5108C20.6565 15.8804 19.9723 15.4301 19.2 15.2307" stroke="white" stroke-width="2" stroke-linecap="round" stroke-linejoin="round"/>
<path id="Icon_2" d="M16.5001 20.5138V18.7138C16.5001 17.7591 16.1208 16.8434 15.4457 16.1682C14.7706 15.4931 13.8549 15.1138 12.9001 15.1138H5.7001C4.74532 15.1138 3.82964 15.4931 3.15451 16.1682C2.47938 16.8434 2.1001 17.7591 2.1001 18.7138V20.5138" stroke="white" stroke-width="1.8" stroke-linecap="round" stroke-linejoin="round"/>
<path id="Icon_3" d="M15.6001 4.43073C16.3745 4.629 17.0608 5.07936 17.551 5.7108C18.0411 6.34225 18.3072 7.11887 18.3072 7.91823C18.3072 8.71758 18.0411 9.4942 17.551 10.1256C17.0608 10.7571 16.3745 11.2075 15.6001 11.4057" stroke="white" stroke-width="1.8" stroke-linecap="round" stroke-linejoin="round"/>
<path id="Icon_4" d="M9.29995 11.5138C11.2882 11.5138 12.9 9.90204 12.9 7.91381C12.9 5.92559 11.2882 4.31381 9.29995 4.31381C7.31173 4.31381 5.69995 5.92559 5.69995 7.91381C5.69995 9.90204 7.31173 11.5138 9.29995 11.5138Z" stroke="white" stroke-width="1.8" stroke-linecap="round" stroke-linejoin="round"/>
</g>
</svg>
