<svg width="30" height="29" viewBox="0 0 30 29" fill="none" xmlns="http://www.w3.org/2000/svg">
<g id="wallet-05">
<path id="Fill" opacity="0.12" d="M23.3996 12.0138L23.9003 10.2612C24.1377 9.43038 24.2564 9.01495 24.1632 8.68628C24.0815 8.39836 23.8952 8.15136 23.6408 7.99373C23.3504 7.81378 22.9183 7.81378 22.0542 7.81378L7.94501 7.81378C7.08089 7.81378 6.64884 7.81378 6.35843 7.99373C6.10403 8.15136 5.91772 8.39836 5.83604 8.68628C5.7428 9.01495 5.86149 9.43038 6.09888 10.2612L6.59961 12.0138L23.3996 12.0138Z" fill="black"/>
<path id="Icon" d="M23.4 12.0138L6.60001 12.0138M23.4 12.0138L25.637 15.7421C26.1383 16.5777 26.389 16.9955 26.5192 17.4452C26.6345 17.8437 26.6801 18.2591 26.654 18.6732C26.6245 19.1404 26.4704 19.6026 26.1623 20.5271L25.9129 21.2753C25.4408 22.6915 25.2047 23.3997 24.7669 23.9232C24.3803 24.3856 23.8838 24.7434 23.3229 24.964C22.6878 25.2138 21.9413 25.2138 20.4484 25.2138L9.55158 25.2138C8.0587 25.2138 7.31225 25.2138 6.67712 24.964C6.11626 24.7434 5.61975 24.3856 5.23313 23.9232C4.7953 23.3997 4.55926 22.6915 4.08717 21.2753L3.83777 20.5271C3.52963 19.6026 3.37555 19.1404 3.34603 18.6732C3.31987 18.2591 3.36548 17.8437 3.48083 17.4452C3.61101 16.9955 3.86168 16.5777 4.36302 15.7421L6.60001 12.0138M23.4 12.0138L23.9007 10.2613C24.1381 9.43039 24.2568 9.01496 24.1636 8.68629C24.0819 8.39838 23.8956 8.15137 23.6412 7.99374C23.3508 7.81379 22.9187 7.81379 22.0546 7.81379L7.94541 7.81379C7.0813 7.81379 6.64924 7.81379 6.35883 7.99374C6.10443 8.15137 5.91812 8.39837 5.83644 8.68629C5.7432 9.01496 5.86189 9.43039 6.09928 10.2613L6.60001 12.0138M15 7.81379H10.7572C10.132 7.81379 9.53245 7.56094 9.0904 7.11085C8.64835 6.66076 8.40001 6.05031 8.40001 5.41379C8.40001 4.77727 8.64835 4.16683 9.0904 3.71674C9.53245 3.26665 10.132 3.01379 10.7572 3.01379C14.0572 3.01379 15 7.81379 15 7.81379ZM15 7.81379H19.2429C19.868 7.81379 20.4676 7.56094 20.9096 7.11085C21.3517 6.66076 21.6 6.05031 21.6 5.41379C21.6 4.77727 21.3517 4.16683 20.9096 3.71674C20.4676 3.26665 19.868 3.01379 19.2429 3.01379C15.9429 3.01379 15 7.81379 15 7.81379Z" stroke="white" stroke-width="2" stroke-linecap="round" stroke-linejoin="round"/>
</g>
</svg>
